<svg width="100" height="100" viewBox="0 0 100 100" fill="none" xmlns="http://www.w3.org/2000/svg">
<rect x="75.3999" y="26.4" width="2.4" height="4.2" fill="#D9D9D9"/>
<rect x="78" y="23.6" width="3.6" height="13.4" fill="#D9D9D9"/>
<path d="M19.7881 20.302C19.7321 20.522 19.5761 20.934 19.2881 21.004L4.0741 21.052C3.9381 21.052 3.8561 21.06 3.7701 21.122C3.7261 21.154 3.6801 21.178 3.6801 21.306C3.5981 21.27 3.4961 21.264 3.3601 21.29C2.7661 20.096 2.2161 18.862 1.7321 17.558C1.7321 17.464 1.6981 17.386 1.6001 17.398V13.99L19.7901 20.302H19.7881Z" fill="#012305"/>
<path d="M98.5158 5.756C98.1818 5.862 97.9098 6.116 97.6458 6.396L96.7218 7.368L95.3978 8.784L93.7878 10.49L92.1338 12.238L90.3818 14.088L88.8718 15.702L87.6378 17.02L86.7178 18C86.6518 18.07 86.6598 18.186 86.6858 18.254C86.6318 18.268 86.4398 18.31 86.5638 18.52L86.2698 18.472C86.2018 18.462 86.1398 18.596 86.0758 18.666L85.1758 19.67L84.2158 20.706L82.5738 22.548L81.1798 24.006L81.0298 24.202C81.0038 24.236 79.2698 24.272 79.2338 24.176C79.2138 24.12 79.2518 24.014 79.3218 23.944L82.4258 20.894L85.0798 18.246L86.6898 16.632L90.8498 12.576L93.1218 10.39L95.2038 8.402L97.6638 6.042L98.5138 5.282V5.75L98.5158 5.756Z" fill="#05481F"/>
<path d="M30.5599 3.2C30.5559 3.296 30.6319 3.32 30.7239 3.324L35.6099 5.148C35.8079 5.222 35.9759 5.28 36.0879 5.438L36.1359 6.608L36.1419 9.742C34.6739 8.63 33.9459 7.194 32.4859 5.818L31.8439 4.932C31.5319 4.502 31.0579 4.256 30.6599 3.952C30.4359 3.782 30.3079 3.468 30.2959 3.2H30.5639H30.5599Z" fill="#02521E"/>
<path d="M98.5198 15.312C98.3778 15.292 98.2798 15.412 98.1398 15.502L93.8958 18.198C93.8598 17.956 94.2738 17.946 94.4258 17.624C94.3458 17.494 94.0478 17.336 94.1458 17.06L98.5198 14.66V15.312Z" fill="#09481F"/>
<path d="M3.67991 21.306L13.7439 25.6L34.5399 34.302C34.6779 34.36 34.7439 34.358 34.8479 34.328L34.9179 34.58C34.9539 34.706 34.8159 34.8 34.6919 34.842L22.6539 33.926L20.9099 33.828L18.6699 33.634L17.3359 33.536L11.6319 33.12C11.5319 33.082 11.4639 33.088 11.4119 33.2C9.85191 31.464 8.49991 29.594 7.14791 27.65C5.71391 25.588 4.45991 23.504 3.35791 21.292C3.49591 21.266 3.59591 21.272 3.67791 21.308L3.67991 21.306Z" fill="url(#paint0_linear_15_695)"/>
<path d="M34.6921 34.842C34.8341 34.852 35.0481 34.948 35.1421 35.126L32.1581 36.862L29.9901 38.118L28.3881 38.968L27.4021 39.614L23.5901 41.942L22.4041 42.8C22.1681 42.714 21.9301 42.626 21.6641 42.582C18.2921 39.984 15.0121 37.204 12.1141 33.98L11.4141 33.2C11.4641 33.09 11.5341 33.082 11.6341 33.12L17.3381 33.536L18.6721 33.634L20.9121 33.828L22.6561 33.926L34.6941 34.842H34.6921Z" fill="#001E03"/>
<path d="M76.658 53.32L75.928 52.798C75.866 53.128 76.084 53.386 76.286 53.648L78.42 56.418L81.178 59.93L84.148 58.95L84.652 62.92C84.428 63.042 84.454 63.286 84.452 63.52L84.374 69.674C84.374 69.77 84.304 69.836 84.19 69.848L81.112 60.022L78.174 58.778L75.582 63.102L74.892 62.636C74.388 62.296 73.91 61.822 73.294 61.572C72.898 61.508 72.464 62.044 72.3 62.408L65.62 60.056C65.404 59.98 65.438 59.654 65.396 59.516L65.768 59.022L70.48 51.11C70.678 51.46 70.572 51.866 70.44 52.242L70.354 53.126L70.164 54.168L70.082 54.93L69.992 55.624C69.952 55.93 69.852 56.178 69.818 56.486L69.724 57.352L69.644 57.678C69.616 57.792 69.816 57.9 69.97 57.87C70.376 57.792 70.556 57.404 70.776 57.048L74.044 51.77C74.24 51.454 74.506 50.976 74.524 50.61L76.226 52.67C76.392 52.874 76.6 53.044 76.656 53.324L76.658 53.32ZM69.768 58.918C70.256 59.344 70.906 59.816 71.546 60.202L69.962 58.454C69.872 58.328 69.732 58.358 69.724 58.532L69.572 58.806C69.538 58.868 69.702 58.936 69.768 58.916V58.918Z" fill="#044A19"/>
<path d="M17.3222 46.458L19.8702 46.916C20.1682 46.97 20.5002 47.022 20.7282 47.14L26.4022 56.776L37.3042 74.734C37.2842 74.844 37.2062 74.892 37.1362 74.876C37.0742 74.862 36.9722 74.8 36.9242 74.734L35.7642 73.13L24.7722 59.258C22.8122 56.784 20.8802 54.374 18.6422 52.138L14.2862 47.784C13.5602 47.058 12.8262 46.44 12.0482 45.818C11.9802 45.896 11.9242 45.902 11.9222 45.894L11.6382 45.634C11.6482 45.582 11.7322 45.384 11.8242 45.402L17.3222 46.46V46.458Z" fill="url(#paint1_linear_15_695)"/>
<path d="M40.6861 79.862L41.2541 80.588L41.2401 80.758L41.2101 82.288L41.0901 87.772C41.2421 87.736 41.3301 87.648 41.3701 87.602L41.3481 87.764C41.3401 87.794 41.3821 87.838 41.4441 87.832L32.3661 95.1L29.9541 96.986L34.3801 83.638C34.4581 83.664 34.4981 83.45 34.5621 83.398L35.6601 82.502C35.7741 82.408 35.9441 82.282 36.0541 82.25C36.2101 82.204 36.3581 82.146 36.5301 82.04L40.0861 79.614C40.1841 79.696 40.2941 79.694 40.3461 79.682C40.3841 79.674 40.4181 79.626 40.4401 79.546L40.6861 79.86V79.862Z" fill="url(#paint2_linear_15_695)"/>
<path d="M57.1061 72.558L55.8701 74.248L52.3081 78.904L50.0761 80.844C49.9001 80.998 49.5381 81.066 49.5801 81.376C49.3681 81.376 49.1941 81.372 49.0421 81.61L41.4461 87.832C41.3821 87.838 41.3421 87.794 41.3501 87.764L41.3721 87.602L42.0101 86.872L43.9381 84.442L44.3901 83.882L47.2541 80.178L47.4141 79.978L51.1661 75.168L49.9141 68.644C49.7581 68.594 49.6441 68.76 49.5701 68.852L48.7761 69.852L48.4561 69.836L49.7461 68.506C49.8701 68.676 50.0301 68.534 49.9621 68.406L51.1981 69.182L53.0081 70.214L56.8701 72.316C56.9961 72.384 57.1041 72.41 57.1081 72.562L57.1061 72.558Z" fill="#085115"/>
<path d="M23.6142 74.008L15.4262 74.83L13.5602 74.994L11.9062 75.126C11.8622 74.77 12.1262 74.742 12.4062 74.576L26.4122 66.306C26.4402 66.25 26.4542 66.28 26.4802 66.28C26.5402 66.28 26.5922 66.204 26.5682 66.146C26.7782 66.224 26.6822 66.522 26.6062 66.71L25.8522 68.54L23.4882 73.882C23.5722 73.89 23.6402 73.904 23.6142 74.008Z" fill="#5B9518"/>
<path d="M81.1761 24.4L82.1221 24.71C82.4621 24.822 82.7821 24.886 83.0761 25.086C82.9341 25.208 83.0201 25.318 83.0401 25.478L83.7801 31.758L84.7721 40.294L81.5061 39.112L80.9921 38.948C81.0001 38.934 80.9741 38.894 80.9221 38.862L80.7401 36.98L80.6221 36.128L80.7261 35.99C80.7261 35.99 80.741 35.8498 80.7501 35.76C80.9726 33.5573 80.8272 32.3056 80.8641 30.092C80.9003 27.9177 80.9381 24.524 80.9381 24.524C80.7681 24.546 80.7001 24.468 80.7181 24.348C80.8521 24.336 81.0501 24.354 81.1761 24.396V24.4Z" fill="url(#paint3_linear_15_695)"/>
<path d="M26.4122 66.304L12.4062 74.574C12.1242 74.74 11.8602 74.768 11.9062 75.124C11.7942 75.132 11.6562 75.132 11.5342 74.994L20.2082 64.398C20.2322 64.486 20.2502 64.518 20.3402 64.54L26.5022 66.016C26.4222 66.148 26.3902 66.212 26.4122 66.304Z" fill="#17651A"/>
<path d="M72.4478 38.7L74.6878 43.778C74.7598 43.942 74.9958 44.06 75.1158 44.098C75.1798 44.118 75.2038 44.314 75.1678 44.344C75.1638 44.378 75.0798 44.452 75.0578 44.48L74.7138 47.53L74.5438 50.144L74.5218 50.606C74.5038 50.972 74.2378 51.448 74.0418 51.766C73.9598 51.776 73.8978 51.696 73.9918 51.648C73.9938 51.468 73.9478 51.314 73.8998 51.178C73.7998 50.898 73.5878 50.648 73.3878 50.392C72.7198 49.542 72.1478 48.668 71.5538 47.766C71.1798 47.196 70.7998 46.674 70.5518 46.12L70.6318 43.264L70.7798 39.922L71.0098 35.62L72.4418 38.7H72.4478Z" fill="url(#paint4_linear_15_695)"/>
<path d="M37.3039 74.734L38.5899 76.746C38.6879 76.9 38.7059 77.012 38.5759 77.172L37.3759 75.892L36.3339 74.754L35.3659 73.752L28.3879 65.57L19.2779 54.712L13.5079 47.81L11.9199 45.894C11.9199 45.894 11.9779 45.894 12.0459 45.818C12.8239 46.44 13.5579 47.058 14.2839 47.784L18.6399 52.138C20.8779 54.376 22.8099 56.784 24.7699 59.258L35.7619 73.13L36.9219 74.734C36.9699 74.8 37.0719 74.862 37.1339 74.876C37.2019 74.892 37.2819 74.842 37.3019 74.734H37.3039Z" fill="#83B328"/>
<path d="M21.666 42.58C21.932 42.624 22.17 42.712 22.406 42.798L35.094 47.472C35.226 47.476 35.29 47.504 35.296 47.602L27.13 46.204L23.024 45.48C23.118 45.41 23.302 45.48 23.392 45.276L18.43 44.294C18.134 44.236 17.866 44.166 17.59 44.258C17.482 44.216 17.402 44.128 17.32 44.052L14.728 41.66C14.868 41.446 15.05 41.486 15.256 41.52L21.664 42.58H21.666Z" fill="#7EB124"/>
<path d="M74.936 66.322C74.946 66.168 75.038 66.138 75.168 66.08L77.572 64.984L77.992 64.72L79.338 67.828L83.806 79.118L75.998 67.96L74.936 66.324V66.322Z" fill="url(#paint5_linear_15_695)"/>
<path d="M67.6162 61.09L69.1802 61.67L70.3763 62.114L75.2462 63.832C75.9542 64.082 76.6263 64.348 77.3323 64.412C77.5623 64.434 77.8863 64.47 77.9943 64.718L77.5742 64.982L75.1702 66.078C75.0402 66.138 74.9483 66.168 74.9383 66.32L73.9142 65.934L66.7323 63.358L64.9062 62.682C65.0982 62.584 65.1842 62.414 65.2702 62.232L65.6383 61.458L66.6742 61.258C67.0322 61.188 67.3322 61.222 67.6202 61.088L67.6162 61.09Z" fill="#3C7209"/>
<path d="M81.5059 39.114C81.4359 39.178 81.3459 39.192 81.2099 39.184L81.3199 39.44L80.9899 39.254L80.9599 40.244L80.9699 42.79L80.9599 44.598L80.8879 49.174L80.8239 51.826C80.5699 51.792 80.4119 51.482 80.3979 51.21L80.2659 51.006C80.3459 50.992 80.3779 50.934 80.3299 50.814L78.4299 45.992L77.0679 42.832C77.1399 42.75 77.1079 42.578 77.1319 42.48L78.4539 41.346L80.5699 39.312L80.9919 38.952L81.5059 39.116V39.114Z" fill="url(#paint6_linear_15_695)"/>
<path d="M23.6138 74.008C23.6398 73.902 23.5718 73.89 23.4878 73.882L25.8518 68.54L26.6058 66.71C26.6838 66.522 26.7778 66.226 26.5678 66.146C26.5318 66.062 26.5438 65.958 26.5878 65.84L30.9818 71.078L23.6138 74.008Z" fill="#387819"/>
<path d="M81.3202 39.44C82.0962 40.008 82.8082 40.676 83.5602 41.338C83.7762 41.53 84.0062 41.692 84.2622 41.76C84.1082 42.578 83.8642 43.348 83.5862 44.194L81.2342 51.394C81.1762 51.572 80.9742 51.844 80.8262 51.824L80.8902 49.172L80.9622 44.596L80.9722 42.788L80.9622 40.242L80.9922 39.252L81.3222 39.438L81.3202 39.44Z" fill="#679F14"/>
<path d="M94.1458 17.06C94.0478 17.336 94.3458 17.494 94.4258 17.624C94.2738 17.946 93.8598 17.956 93.8958 18.198L84.5358 24.224L83.0758 25.088C82.7818 24.888 82.4618 24.824 82.1218 24.712L81.1758 24.402C81.2178 24.296 81.3158 24.246 81.4018 24.198L84.3918 22.562C84.4938 22.44 84.6718 22.322 84.6698 22.068C84.7398 22.096 84.7818 22.086 84.8718 22.056C84.8578 22.09 84.8498 22.16 84.8718 22.178C84.8998 22.196 84.9378 22.192 85.0198 22.146L94.1438 17.06H94.1458Z" fill="#022E10"/>
<path d="M38.5762 77.172L40.4402 79.546C40.4182 79.626 40.3842 79.674 40.3462 79.682C40.2942 79.692 40.1842 79.694 40.0862 79.614L36.5302 82.04C36.3582 82.146 36.2082 82.204 36.0542 82.25C36.2382 81.78 36.9802 81.458 37.2622 81.002C37.5142 80.596 37.1662 80.144 36.9302 79.862L36.1862 78.966C36.0142 78.76 35.9122 78.516 35.5942 78.638L35.5162 76.808L35.3682 73.75L36.3362 74.752L37.3782 75.89L38.5782 77.17L38.5762 77.172Z" fill="#022708"/>
<path d="M36.0542 82.252C35.9442 82.284 35.7742 82.41 35.6602 82.504L34.5622 83.4C34.4982 83.452 34.4582 83.666 34.3802 83.64L30.9682 86.072C30.9082 85.742 31.1542 85.622 31.2902 85.424L35.3722 79.404C35.5582 79.13 35.6042 78.92 35.5922 78.642C35.9102 78.52 36.0122 78.764 36.1842 78.97L36.9282 79.866C37.1642 80.15 37.5122 80.6 37.2602 81.006C36.9782 81.462 36.2362 81.784 36.0522 82.254L36.0542 82.252Z" fill="#024618"/>
<path d="M14.7301 41.66L17.3221 44.052C17.3141 44.134 17.2861 44.174 17.2161 44.158L10.9201 44.306L9.63211 44.442C9.55811 44.56 9.47211 44.696 9.31811 44.716C9.12811 44.672 8.88811 44.698 8.76611 44.462L14.1901 41.404L14.7321 41.656L14.7301 41.66Z" fill="#03501C"/>
<path d="M26.588 65.84C26.542 65.96 26.53 66.062 26.568 66.146C26.594 66.204 26.542 66.282 26.48 66.28C26.454 66.28 26.438 66.248 26.412 66.306C26.392 66.216 26.424 66.15 26.502 66.018L20.34 64.542C20.25 64.52 20.232 64.49 20.208 64.4L21.66 62.834L22.922 61.524L26.588 65.84Z" fill="#02531E"/>
<path d="M80.2682 51.006L75.1702 44.344C75.2062 44.314 75.1822 44.118 75.1182 44.098L77.0702 42.832L78.4322 45.992L80.3322 50.814C80.3802 50.934 80.3462 50.992 80.2682 51.006Z" fill="#011C03"/>
<path d="M17.5899 44.26C17.5859 44.344 17.6439 44.388 17.6799 44.448C17.5779 44.428 17.5299 44.488 17.5279 44.538L17.5219 44.748C17.3399 45.468 17.4459 45.988 17.3219 46.458L11.8239 45.4C11.7299 45.382 11.6479 45.58 11.6379 45.632C11.3619 45.378 11.2839 45.166 10.9039 45.078L9.31592 44.716C9.46992 44.698 9.55592 44.56 9.62992 44.442L10.9179 44.306L17.2139 44.158C17.2839 44.174 17.3139 44.132 17.3199 44.052C17.4019 44.128 17.4819 44.216 17.5899 44.258V44.26Z" fill="#3F750A"/>
<path d="M84.1479 58.948L81.1779 59.928L78.4199 56.416C78.7339 56.136 79.0199 55.838 79.4499 55.776L79.4959 55.36L83.6019 58.436C83.7879 58.576 84.0819 58.758 84.1499 58.946L84.1479 58.948Z" fill="#679F1A"/>
<path d="M84.9678 72.254L85.1078 71.28L85.5338 69.648C85.9338 69.864 86.2318 70.186 86.5938 70.506L91.4678 74.782L84.9658 72.256L84.9678 72.254Z" fill="#2A6D1C"/>
<path d="M85.534 69.646L85.108 71.278L84.968 72.252C84.892 72.222 84.788 72.028 84.764 71.942L84.186 69.844C84.3 69.832 84.37 69.766 84.37 69.67L84.448 63.516C84.45 63.282 84.426 63.036 84.648 62.916L85.532 69.646H85.534Z" fill="#5C9523"/>
<path d="M65.3938 59.51C65.4338 59.648 65.4018 59.974 65.6178 60.05L72.2978 62.402L74.3598 63.142C74.4618 63.178 74.5918 63.182 74.6218 63.122L74.7398 62.878L74.7578 62.69C74.7618 62.652 74.8378 62.616 74.8898 62.63L75.5798 63.096L77.3338 64.41C76.6278 64.346 75.9558 64.08 75.2478 63.83L70.3778 62.112L69.1818 61.668L67.6178 61.088L65.0698 60.126L65.0958 59.228C65.2098 59.256 65.3618 59.398 65.3958 59.51H65.3938Z" fill="#A4C77F"/>
<path d="M76.6581 53.32L77.7081 54.116L79.4961 55.362L79.4501 55.778C79.0201 55.84 78.7341 56.138 78.4201 56.418L76.2861 53.648C76.0861 53.388 75.8681 53.128 75.9281 52.798L76.6581 53.32Z" fill="#528E19"/>
<path d="M84.772 40.296L84.26 41.762C84.006 41.694 83.776 41.53 83.558 41.34C82.806 40.676 82.094 40.01 81.318 39.442L81.208 39.186C81.346 39.194 81.436 39.18 81.504 39.116L84.77 40.298L84.772 40.296Z" fill="#164F0B"/>
<path d="M46.1638 19.972C46.1118 20.068 46.1298 20.288 46.2118 20.414L51.5538 28.588L56.7718 36.534L61.2158 42.944C61.2598 43.008 61.2858 43.054 61.2878 43.092C61.2918 43.152 61.2158 43.19 61.1418 43.168L52.7158 36.522L49.3958 33.876C49.4078 33.572 49.2998 33.23 49.1398 32.992L48.4558 31.176L42.5678 16.09L41.3758 13.13C41.3498 13.064 41.3338 12.98 41.3938 12.948L46.0278 20.056C46.0898 19.984 46.1398 19.972 46.1618 19.97L46.1638 19.972Z" fill="#012507"/>
<path d="M41.3939 12.952C41.3339 12.984 41.3499 13.068 41.3759 13.134L42.5679 16.094L48.4559 31.18L49.1399 32.996C49.0459 32.992 48.9859 32.932 48.9299 32.83L48.3539 31.768L42.9819 22.02L39.7459 16.27L37.8439 12.856L36.2379 10.022C36.1759 9.914 36.1419 9.834 36.1419 9.746L36.1359 6.612L36.0879 5.442L41.3939 12.956V12.952Z" fill="#81B425"/>
<path d="M32.0582 24.518L32.3262 24.728L33.1882 24.996L36.4342 26.088L37.6002 26.552C38.9262 26.986 40.2422 27.354 41.5322 27.958C41.5702 27.976 41.6182 27.942 41.6642 27.912C41.7582 28.128 41.9442 28.198 42.1242 28.336L46.2882 34.71L49.6622 39.658C50.5142 40.906 51.3522 42.064 52.4402 43.152L58.1562 48.868L58.9562 49.578L59.8562 50.308L58.7002 50.304L55.8582 50.204L49.5802 49.96L48.8482 47.404L46.0502 37.622L35.8522 30.578L24.3462 22.88C24.0642 22.692 23.8062 22.732 23.5282 22.848L22.2702 21.536C22.2482 21.472 22.2962 21.336 22.3302 21.234L31.6842 24.43L32.0602 24.522L32.0582 24.518Z" fill="#7CB123"/>
<path d="M22.3258 21.23C22.2918 21.332 22.2458 21.468 22.2658 21.532L23.5238 22.844L28.0018 27.44L34.8438 34.328C34.7398 34.358 34.6758 34.36 34.5358 34.302L13.7398 25.6L3.67578 21.306C3.67578 21.178 3.72178 21.154 3.76578 21.122C3.85178 21.06 3.93378 21.052 4.06978 21.052L19.2838 21.004C19.5718 20.934 19.7258 20.522 19.7838 20.302L22.3238 21.228L22.3258 21.23Z" fill="#014619"/>
<path d="M36.1419 9.742C36.1419 9.832 36.1759 9.91 36.2379 10.018L37.8439 12.852L39.7459 16.266L42.9819 22.016C42.9339 22.03 42.8739 22.074 42.8939 22.088C42.9259 22.106 42.9959 22.256 42.9399 22.316C42.5679 22.468 42.1599 22.316 41.7899 22.376C40.4879 22.594 39.6219 21.988 39.3619 22.61L36.6439 16.43C36.5859 16.3 36.5479 16.196 36.4299 16.178L36.4159 15.532C36.4039 15.004 36.3719 14.466 36.3339 13.894L36.1139 10.454L34.8899 11.794C34.8039 11.888 34.7259 12.004 34.5979 12.018L33.8319 10.326C33.4319 9.834 33.1799 9.318 32.7919 8.732L32.9519 10.742L33.3579 15.594L33.4459 17.622L33.5119 20.338C32.9639 20.41 32.4079 20.426 31.8479 20.402L31.0939 8.44L30.9619 5.816C30.9299 5.168 30.8919 4.538 30.6519 3.948C31.0499 4.252 31.5239 4.498 31.8359 4.928L32.4779 5.814C33.9379 7.19 34.6659 8.626 36.1339 9.738L36.1419 9.742Z" fill="#417407"/>
<path d="M34.6041 12.02C34.5241 12.204 34.6761 12.352 34.7601 12.532L36.0721 15.306C36.1541 15.48 36.2221 15.554 36.4201 15.534L36.4341 16.18V26.088L33.1881 24.996L32.3261 24.728L32.0581 24.518L32.0721 24.212C32.1461 24.216 32.2381 24.304 32.1441 24.474L33.6161 24.996L33.5941 20.712L33.5181 20.344L33.4521 17.628L33.3641 15.6L32.9581 10.748L32.7981 8.73801C33.1861 9.32201 33.4381 9.84001 33.8381 10.332L34.6041 12.024V12.02Z" fill="#01350F"/>
<path d="M32.072 24.212L31.854 20.408C32.414 20.432 32.97 20.416 33.518 20.344L33.594 20.712L33.616 24.996L32.144 24.474C32.238 24.306 32.146 24.216 32.072 24.212Z" fill="#205906"/>
<path d="M48.8439 47.4C48.7039 47.488 48.5999 47.492 48.4419 47.412L46.7359 46.558L43.2239 45.364C43.2159 45.296 43.2539 45.256 43.2899 45.264C43.3199 45.272 43.3779 45.32 43.4639 45.242L41.8959 43.994L33.2379 37.64L32.1559 36.862L35.1399 35.126C35.0439 34.948 34.8299 34.854 34.6899 34.842C34.8139 34.798 34.9499 34.706 34.9159 34.58L34.8459 34.328L28.0039 27.44L23.5259 22.844C23.8039 22.728 24.0639 22.688 24.3439 22.876L35.8499 30.574L46.0479 37.618L48.8459 47.4H48.8439Z" fill="#3D7F0F"/>
<path d="M64.298 46.264L64.67 52.608L65.094 59.228L65.068 60.126C64.474 60.498 63.936 61 63.37 61.576C63.274 61.672 63 61.7 63.068 61.93C63.284 61.848 63.334 61.968 63.446 62.006C63.54 62.036 63.622 62.052 63.586 62.208C63.408 62.144 63.218 62.106 63.006 61.95L54.854 68.66L60.726 73.19C60.77 73.304 60.864 73.426 61.026 73.476C60.958 73.578 60.95 73.632 60.938 73.696C60.79 73.68 60.686 73.604 60.564 73.532L57.786 71.864L54.198 69.774C53.138 69.156 50.232 67.934 49.912 68.212C49.836 68.278 49.912 68.342 49.958 68.404C50.026 68.532 49.866 68.674 49.742 68.504L48.452 69.834L47.054 70.81L43.648 73.274L39.798 76.12C39.304 75.862 38.746 75.666 38.354 75.108L47.896 61.336L50.444 59.534L52.702 57.614C52.74 57.564 52.724 57.46 52.72 57.438C52.84 57.456 52.976 57.354 53.086 57.252L54.322 56.102L59.086 51.434L60.098 50.468L61.812 48.748C61.888 48.67 61.996 48.646 62.078 48.676C62.122 48.692 62.146 48.762 62.226 48.842C59.65 52.53 57.22 56.336 54.824 60.19C54.686 60.412 54.524 60.542 54.518 60.812C53.426 61.508 52.724 62.774 51.986 63.902L49.5 67.694L55.11 65.028L57.448 63.884L60.71 62.226L62.064 56.002L63.582 48.908L64.056 47.016L63.988 46.784L64.108 46.602L64.154 46.326C64.162 46.274 64.198 46.196 64.294 46.266L64.298 46.264Z" fill="#014517"/>
<path d="M60.9382 73.696C61.2442 74.02 61.8022 74.364 62.1742 74.186L64.7422 75.972L65.4002 76.366C65.5302 76.444 65.6222 76.568 65.5922 76.682C65.5742 76.75 65.3782 76.916 65.2682 76.854L63.8122 76.034L60.1022 74.076C60.0362 74.138 60.0162 74.076 60.0142 74.046C60.0122 74.016 60.0002 73.946 59.9922 73.924C60.2602 73.966 60.4322 73.734 60.5622 73.53C60.6842 73.604 60.7882 73.68 60.9362 73.694L60.9382 73.696Z" fill="#376E0C"/>
<path d="M43.2263 45.362L46.7382 46.556L48.4443 47.41C48.6023 47.49 48.7063 47.486 48.8463 47.398L49.5782 49.954L48.9023 49.894L36.8262 47.844L35.2963 47.602C35.2903 47.502 35.2282 47.476 35.0942 47.472L22.4062 42.798L23.5923 41.94L27.4042 39.612L28.3903 38.966C28.3843 39.034 28.3862 39.144 28.4342 39.166L28.5942 39.238L31.3183 40.424L39.5743 43.87L43.2263 45.362Z" fill="#004F1D"/>
<path d="M32.1579 36.862L33.2399 37.64L41.8979 43.994L43.4659 45.242C43.3799 45.32 43.3219 45.272 43.2919 45.264C43.2559 45.254 43.2199 45.296 43.2259 45.364L39.5739 43.872L31.3179 40.426L28.5939 39.24L28.4339 39.168C28.3839 39.146 28.3839 39.036 28.3899 38.968L29.9919 38.118L32.1599 36.862H32.1579Z" fill="#539212"/>
<path d="M70.8119 50.488L70.4779 51.106L65.7659 59.018L65.3939 59.512C65.3619 59.4 65.2079 59.258 65.0939 59.23L64.6698 52.61L64.2979 46.266C64.5079 45.976 64.8339 46.154 65.1179 46.36L70.8119 50.488Z" fill="#8ABA2B"/>
<path d="M73.9022 51.18C73.9502 51.316 73.9962 51.468 73.9942 51.65C73.9002 51.698 73.9622 51.778 74.0442 51.768L70.7762 57.046C70.5562 57.402 70.3762 57.79 69.9702 57.868C69.8182 57.898 69.6162 57.79 69.6442 57.676L69.7242 57.35L69.8182 56.484C69.8522 56.178 69.9522 55.928 69.9922 55.622L70.0822 54.928L70.1642 54.166L70.3542 53.124L70.4402 52.24C70.5722 51.866 70.6762 51.458 70.4802 51.108L70.8142 50.49C70.9822 50.612 71.2762 50.686 71.5162 50.742L73.5302 51.222C73.6882 51.26 73.8222 51.284 73.9062 51.182L73.9022 51.18Z" fill="#326C0D"/>
<path d="M74.8879 62.632C74.8359 62.618 74.7599 62.652 74.7559 62.692L74.7379 62.88L74.6199 63.124C74.5899 63.184 74.4619 63.18 74.3579 63.144L72.2959 62.404C72.4579 62.04 72.8939 61.504 73.2899 61.568C73.9059 61.82 74.3839 62.292 74.8879 62.632Z" fill="#468613"/>
<path d="M69.7681 58.918C69.7701 58.746 69.8661 58.604 69.9601 58.454L71.5441 60.202C70.9061 59.818 70.2561 59.346 69.7661 58.918H69.7681Z" fill="#032707"/>
<path d="M69.962 58.454C69.868 58.604 69.772 58.746 69.77 58.918C69.702 58.936 69.54 58.868 69.574 58.808L69.726 58.534C69.732 58.36 69.874 58.33 69.964 58.456L69.962 58.454Z" fill="#D8DBCC"/>
<path d="M17.6802 44.448C18.2662 44.666 18.8982 44.792 19.5582 44.868C20.3322 44.956 21.0502 45.164 21.7802 45.282L21.7742 45.448C21.7742 45.548 21.9182 45.488 21.9542 45.496L23.7222 46.202L30.4782 48.786L41.5762 53.048L51.0342 56.88C51.0122 56.874 49.3342 56.708 48.4502 56.622L41.1702 55.912C40.1762 55.816 39.2602 55.778 38.2882 55.774C38.2162 55.938 38.2242 56.074 38.2362 56.206L31.1422 52.498L20.7302 47.14C20.5022 47.022 20.1702 46.97 19.8722 46.916L17.3242 46.458C17.4502 45.986 17.3422 45.468 17.5242 44.748L17.5302 44.538C17.5302 44.488 17.5802 44.428 17.6822 44.448H17.6802Z" fill="url(#paint7_linear_15_695)"/>
<path d="M43.116 77.712L47.314 79.796C47.394 79.836 47.426 79.854 47.41 79.978L47.25 80.178L45.322 80.354C43.938 80.506 42.594 80.61 41.252 80.588L40.684 79.862L40.846 79.866L40.526 78.888C40.442 78.63 40.672 78.44 40.75 78.216L41.116 77.18L41.344 77.074C41.37 77.062 41.346 76.968 41.344 76.928L43.112 77.712H43.116Z" fill="#A7C984"/>
<path d="M44.3878 83.882L43.9358 84.442L42.0078 86.872L41.3698 87.602C41.3318 87.646 41.2418 87.736 41.0898 87.772L41.2098 82.288L41.2398 80.758C41.4278 80.734 41.5418 80.814 41.6778 80.968L43.8178 83.362C43.9898 83.554 44.1238 83.796 44.3878 83.882Z" fill="#669E11"/>
<path d="M47.2522 80.178L44.3882 83.882C44.1242 83.796 43.9902 83.554 43.8182 83.362L41.6782 80.968C41.5422 80.816 41.4282 80.736 41.2402 80.758L41.2542 80.588C42.5962 80.61 43.9402 80.506 45.3242 80.354L47.2522 80.178Z" fill="#7DB01F"/>
<path d="M47.4101 79.978C47.4261 79.854 47.3941 79.838 47.3141 79.796C47.4221 79.22 47.4281 78.614 47.3981 77.974L47.2141 74.092L47.0781 72.462L48.2341 70.756L48.7741 69.852L49.5681 68.852C49.6421 68.76 49.7561 68.594 49.9121 68.644L51.1641 75.168L47.4121 79.978H47.4101Z" fill="#8DBB2D"/>
<path d="M48.7718 69.852L48.2318 70.756L47.0758 72.462L46.4238 73.31L43.3058 77.756C43.2138 77.662 43.1418 77.676 43.1138 77.71L41.3458 76.926L39.7998 76.12L43.6498 73.274L47.0558 70.81L48.4538 69.834L48.7738 69.85L48.7718 69.852Z" fill="#4F8A09"/>
<path d="M60.5641 73.532C60.4321 73.734 60.2601 73.968 59.9941 73.926L57.3301 72.52C57.2141 72.458 57.1521 72.494 57.1061 72.558C57.1021 72.406 56.9941 72.382 56.8681 72.312L53.0061 70.21L51.1961 69.178L49.9601 68.402C49.9141 68.34 49.8381 68.276 49.9141 68.21C50.2341 67.932 53.1381 69.154 54.2001 69.772L57.7881 71.862L60.5661 73.53L60.5641 73.532Z" fill="#3E740C"/>
<path d="M80.6238 36.13L80.7418 36.982L80.9238 38.864C80.9758 38.896 81.0018 38.938 80.9938 38.95L80.5718 39.31L78.4558 41.344L77.1338 42.478C77.0938 42.482 77.0418 42.474 77.0378 42.45L75.7218 36.138L75.6358 35.95L74.9878 32.514L78.2138 33.006L79.8538 27.038C80.4178 27.566 80.6378 28.37 80.2918 29.094L79.5818 30.576L80.6278 36.126L80.6238 36.13Z" fill="#76AC1B"/>
<path d="M71.1238 27.6L71.1398 29.196C71.0518 29.538 71.0698 29.864 71.0618 30.18C70.9698 30.17 70.9558 30.19 70.8818 30.282L64.7798 38.068C64.5558 38.508 64.2678 38.844 64.2738 39.42L70.9278 35.438C70.8898 35.532 70.9338 35.61 71.0138 35.618L70.7838 39.92L70.6358 43.262L70.5558 46.118L67.7258 46.008L65.2498 45.934L64.3218 45.878C64.0498 45.862 63.9078 46.05 63.6938 46.164C63.6438 45.838 64.0938 45.854 64.2318 45.71C64.2618 45.68 64.3618 45.692 64.3758 45.79L66.2818 45.838L69.5118 45.926C69.8298 45.934 70.1318 46.038 70.4298 45.94C70.3478 45.554 70.4718 45.296 70.4778 44.996L70.5398 42.168L64.8378 45.232C64.6378 45.34 64.4398 45.44 64.2598 45.418C64.0698 45.394 64.0498 45.546 63.9278 45.512C63.8898 45.5 63.8358 45.446 63.8898 45.372C63.9038 45.408 64.0498 45.382 64.0498 45.298L64.0218 37.67L64.0018 33.582C63.9998 33.088 64.0778 32.594 63.8518 32.112L71.1258 27.602L71.1238 27.6Z" fill="#7DB121"/>
<path d="M71.3182 27.648L73.6182 28.338C74.0102 29.78 74.4462 31.178 74.9862 32.516L75.6342 35.952C75.3042 36.118 74.9662 36.008 74.5602 35.934C74.4442 35.912 74.3042 35.996 74.1822 35.774L73.7822 36.29L72.7462 38.306C72.6802 38.434 72.7022 38.674 72.4502 38.696L71.0182 35.616C70.9382 35.61 70.8922 35.532 70.9322 35.436L71.0662 30.176C71.0742 29.86 71.0562 29.534 71.1442 29.192L71.1282 27.596C71.1942 27.656 71.2802 27.632 71.3222 27.644L71.3182 27.648Z" fill="#185609"/>
<path d="M75.6318 35.954L75.7178 36.142L77.0338 42.454C77.0398 42.478 77.0898 42.484 77.1298 42.482C77.1058 42.58 77.1378 42.752 77.0658 42.834L75.1138 44.1C74.9938 44.062 74.7578 43.944 74.6858 43.78L72.4458 38.702C72.6998 38.68 72.6758 38.44 72.7418 38.312L73.7778 36.296L74.1778 35.78C74.2998 36 74.4398 35.918 74.5558 35.94C74.9598 36.014 75.2978 36.124 75.6298 35.958L75.6318 35.954Z" fill="#3E7108"/>
<path d="M70.5562 46.12C70.8042 46.674 71.1822 47.198 71.5582 47.766C72.1522 48.668 72.7242 49.542 73.3922 50.392C73.5922 50.648 73.8042 50.898 73.9042 51.178C73.8202 51.28 73.6862 51.256 73.5282 51.218L71.5142 50.738C71.2762 50.682 70.9822 50.608 70.8122 50.486L65.1182 46.358C64.8342 46.152 64.5082 45.974 64.2982 46.264C64.2022 46.194 64.1682 46.272 64.1582 46.324L64.1122 46.6L63.9922 46.782L64.0602 47.014L63.5862 48.906C63.1442 48.866 62.6942 48.87 62.2642 48.728L62.7782 47.9L63.9942 46.202C64.0382 46.142 64.2922 46.168 64.3082 46.1C64.3222 46.04 64.3282 45.958 64.3222 45.88L65.2502 45.936L67.7262 46.01L70.5562 46.12Z" fill="#024D18"/>
<path d="M23.024 45.482L27.13 46.206L35.296 47.604L36.826 47.846L48.902 49.896L49.578 49.956L55.856 50.2L58.698 50.3L59.854 50.304C59.93 50.366 59.976 50.46 60.102 50.468L59.09 51.434L54.326 56.102L53.09 57.252C52.98 57.354 52.844 57.458 52.724 57.438L51.032 56.88L41.574 53.048L30.476 48.786L23.72 46.202L21.952 45.496C21.918 45.488 21.77 45.546 21.772 45.448L21.778 45.282L23.022 45.482H23.024Z" fill="url(#paint8_linear_15_695)"/>
<path d="M23.024 45.482L21.78 45.282C21.05 45.164 20.33 44.958 19.558 44.868C18.898 44.792 18.266 44.666 17.68 44.448C17.644 44.388 17.586 44.344 17.59 44.26C17.864 44.166 18.132 44.236 18.43 44.296L23.392 45.278C23.3 45.482 23.116 45.412 23.024 45.482Z" fill="#B1D289"/>
<path d="M67.6158 61.09C67.3278 61.226 67.0278 61.192 66.6698 61.26L65.6338 61.46L65.2658 62.234C65.1798 62.416 65.0938 62.584 64.9018 62.684L63.5838 62.208C63.6198 62.052 63.5378 62.038 63.4438 62.006C63.3318 61.968 63.2818 61.848 63.0658 61.93C62.9998 61.7 63.2738 61.674 63.3678 61.576C63.9338 61.002 64.4738 60.498 65.0658 60.126L67.6138 61.088L67.6158 61.09Z" fill="#24610A"/>
<path d="M78.3979 24.54C79.0599 24.73 79.7879 24.762 80.3599 25.124C80.1319 25.386 79.8779 25.552 79.5739 25.71L77.9459 26.554C77.7319 26.646 77.3759 26.83 77.3059 27.042C77.0139 26.844 76.6119 26.882 76.3099 27.098L75.7079 27.528C75.3439 27.552 75.0219 27.714 74.6619 27.884L73.6179 28.342L71.3179 27.652C71.4759 27.636 71.5839 27.532 71.7299 27.438L74.4619 25.682C74.5739 25.732 74.5499 25.58 74.4759 25.596C74.5559 25.596 74.6939 25.52 74.7819 25.466L76.0039 24.702C76.5119 24.384 77.7039 24.378 78.3979 24.544V24.54Z" fill="#4B7D0A"/>
<path d="M49.3961 33.878L52.7161 36.524L61.1421 43.17L63.8881 45.372C63.8341 45.446 63.8881 45.5 63.9261 45.512C64.0481 45.546 64.0681 45.394 64.2581 45.418C64.2421 45.514 64.2161 45.612 64.2301 45.712C64.0921 45.856 63.6421 45.84 63.6921 46.166L60.8541 47.696C59.9761 48.17 59.1081 48.55 58.1541 48.864L52.4381 43.148C51.3501 42.062 50.5121 40.902 49.6601 39.654L46.2861 34.706L42.1221 28.332L49.3961 33.876V33.878Z" fill="#9BC34B"/>
<path d="M63.8522 32.11C64.0782 32.59 64.0002 33.086 64.0022 33.58L64.0222 37.668L64.0502 45.296C64.0502 45.38 63.9042 45.406 63.8902 45.37L61.1442 43.168C61.2182 43.192 61.2942 43.152 61.2902 43.092C61.2882 43.054 61.2622 43.008 61.2182 42.944L56.7742 36.534C56.7742 36.494 56.7502 36.394 56.7782 36.374L56.9842 36.238L59.5702 34.67L60.1082 34.386L63.8522 32.11Z" fill="#206411"/>
<path d="M49.1422 32.996C49.3022 33.234 49.4082 33.574 49.3982 33.88L42.1242 28.336C41.9442 28.2 41.7582 28.128 41.6642 27.912L39.3682 22.612C39.6282 21.99 40.4922 22.596 41.7962 22.378C42.1662 22.316 42.5722 22.47 42.9462 22.318C43.0022 22.258 42.9322 22.11 42.9002 22.09C42.8782 22.078 42.9382 22.032 42.9882 22.018L48.3602 31.766L48.9362 32.828C48.9902 32.93 49.0502 32.99 49.1462 32.994L49.1422 32.996Z" fill="#215403"/>
<path d="M64.3199 45.88C64.3259 45.958 64.3199 46.04 64.3059 46.1C64.2899 46.17 64.0359 46.142 63.9919 46.202L62.7759 47.9L62.2619 48.728C62.2379 48.752 62.1679 48.786 62.2279 48.84C62.1499 48.762 62.1239 48.69 62.0799 48.674C61.9979 48.646 61.8919 48.67 61.8139 48.746L60.0999 50.466C59.9739 50.46 59.9299 50.364 59.8519 50.302L58.9519 49.572L58.1519 48.862C59.1059 48.548 59.9739 48.166 60.8519 47.694L63.6899 46.164C63.9039 46.048 64.0459 45.86 64.3179 45.878L64.3199 45.88Z" fill="#011B03"/>
<path d="M36.4201 15.534C36.2221 15.554 36.1561 15.48 36.0721 15.306L34.7601 12.532C34.6761 12.354 34.5241 12.204 34.6041 12.02C34.7321 12.006 34.8101 11.892 34.8961 11.796L36.1201 10.456L36.3401 13.896C36.3761 14.468 36.4101 15.006 36.4221 15.534H36.4201Z" fill="#064710"/>
<path d="M63.586 48.908L62.068 56.002C61.98 56.002 61.9 56.042 61.788 56.116L57.16 59.132L54.52 60.814C54.526 60.544 54.69 60.414 54.826 60.192C57.222 56.336 59.65 52.532 62.228 48.844C62.168 48.79 62.238 48.756 62.262 48.732C62.692 48.874 63.142 48.87 63.584 48.91L63.586 48.908Z" fill="#509110"/>
<path d="M51.03 56.882L52.722 57.44C52.726 57.462 52.742 57.566 52.704 57.616L50.446 59.536L44.31 58.462C43.456 58.318 41.74 57.93 41.672 57.826C41.642 57.78 41.526 57.814 41.516 57.936L38.232 56.208C38.22 56.074 38.212 55.94 38.284 55.776C39.258 55.78 40.174 55.818 41.166 55.914L48.446 56.624C49.33 56.71 51.008 56.876 51.03 56.882Z" fill="#5A9610"/>
<path d="M62.0682 56.002L60.7142 62.226L57.4522 63.884L55.1142 65.028C54.9482 65.084 54.7642 64.928 54.9742 64.8L54.8582 64.582C54.8042 64.48 54.9262 64.366 54.9822 64.252L56.0302 62.078L56.9402 59.676C57.0102 59.492 57.2562 59.352 57.1622 59.132L61.7902 56.116C61.9002 56.044 61.9822 56.002 62.0702 56.002H62.0682Z" fill="#E1EECC"/>
<path d="M55.112 65.028L49.502 67.694L51.988 63.902C52.726 62.776 53.4279 61.508 54.5199 60.812L57.16 59.13C57.254 59.35 57.008 59.49 56.938 59.674L56.028 62.076L54.98 64.25C54.926 64.364 54.802 64.478 54.856 64.58L54.972 64.798C54.762 64.926 54.946 65.082 55.112 65.026V65.028Z" fill="#CDE2A9"/>
<path d="M50.4481 59.536L47.9001 61.338C47.8901 61.272 47.8601 61.224 47.8261 61.222C47.7881 61.22 47.7241 61.156 47.6741 61.13L41.5181 57.934C41.5281 57.812 41.6441 57.778 41.6741 57.824C41.7441 57.928 43.4581 58.316 44.3121 58.46L50.4481 59.534V59.536Z" fill="#317513"/>
<path d="M38.2499 57.966C38.3919 58.122 38.5679 58.258 38.5139 58.472L32.1159 62.502C31.9919 62.58 31.9299 62.674 31.7939 62.646L28.1499 56.6L30.9079 54.166L38.2499 57.966Z" fill="#013E13"/>
<path d="M35.8522 68.738C35.7482 68.664 35.7521 68.624 35.7881 68.508L38.8542 58.576C38.8922 58.456 38.7861 58.466 38.7501 58.458C38.6861 58.446 38.5902 58.432 38.5142 58.47C38.5682 58.258 38.3921 58.12 38.2501 57.964L45.7042 61.904L35.8522 68.736V68.738Z" fill="#0B5C1F"/>
<path d="M35.852 68.738C35.75 68.97 35.33 68.606 35.102 68.222L31.792 62.646C31.928 62.676 31.992 62.58 32.114 62.502L38.512 58.472C38.588 58.432 38.682 58.446 38.748 58.46C38.786 58.468 38.89 58.456 38.852 58.578L35.786 68.51C35.75 68.626 35.748 68.666 35.85 68.74L35.852 68.738Z" fill="#6EA41B"/>
<path d="M47.3142 79.796L43.1162 77.712C43.1422 77.678 43.2142 77.664 43.3082 77.758L46.4262 73.312L47.0782 72.464L47.2142 74.094L47.3982 77.976C47.4282 78.616 47.4222 79.222 47.3142 79.798V79.796Z" fill="#77AB1A"/>
<path d="M79.8502 27.042L78.2102 33.01L74.9842 32.518C74.4442 31.18 74.0082 29.782 73.6162 28.34L74.6602 27.882C75.0202 27.712 75.3442 27.55 75.7062 27.526L76.8382 30.654C77.3842 29.446 77.3502 28.24 77.3022 27.04C77.3722 26.828 77.7302 26.644 77.9422 26.552L79.5702 25.708C79.8742 25.55 80.1282 25.384 80.3562 25.122C80.6202 25.26 80.4482 25.516 80.3682 25.718L79.8462 27.042H79.8502Z" fill="#011902"/>
<path d="M71.062 30.182L70.928 35.442L64.274 39.424C64.268 38.848 64.556 38.512 64.78 38.072L70.882 30.286C70.954 30.192 70.97 30.174 71.062 30.184V30.182Z" fill="#E8F2DD"/>
<path d="M64.2318 45.712C64.2198 45.612 64.2438 45.514 64.2598 45.418C64.4398 45.442 64.6378 45.34 64.8378 45.232L70.5398 42.168L70.4778 44.996C70.4718 45.296 70.3478 45.556 70.4298 45.94C70.1318 46.038 69.8298 45.934 69.5118 45.926L66.2818 45.838L64.3758 45.79C64.3598 45.692 64.2618 45.68 64.2318 45.71V45.712Z" fill="#96C043"/>
<defs>
<linearGradient id="paint0_linear_15_695" x1="4.97299" y1="25.9167" x2="28.7719" y2="36.0085" gradientUnits="userSpaceOnUse">
<stop stop-color="#28771F"/>
<stop offset="1" stop-color="#5C9B15"/>
</linearGradient>
<linearGradient id="paint1_linear_15_695" x1="16.4046" y1="46.0712" x2="26.6111" y2="61.2964" gradientUnits="userSpaceOnUse">
<stop stop-color="#012005"/>
<stop offset="1" stop-color="#014518"/>
</linearGradient>
<linearGradient id="paint2_linear_15_695" x1="39.9543" y1="81.1755" x2="35.5307" y2="91.3472" gradientUnits="userSpaceOnUse">
<stop stop-color="#1A4E06"/>
<stop offset="1" stop-color="#2F690C"/>
</linearGradient>
<linearGradient id="paint3_linear_15_695" x1="82.1735" y1="25.6403" x2="82.62" y2="38.5108" gradientUnits="userSpaceOnUse">
<stop offset="0.22" stop-color="#76AA19"/>
<stop offset="1" stop-color="#BCD48C"/>
</linearGradient>
<linearGradient id="paint4_linear_15_695" x1="72.5889" y1="39.4837" x2="73.0176" y2="48.7803" gradientUnits="userSpaceOnUse">
<stop stop-color="#012205"/>
<stop offset="1" stop-color="#296A0F"/>
</linearGradient>
<linearGradient id="paint5_linear_15_695" x1="76.776" y1="66.0782" x2="78.7603" y2="70.4416" gradientUnits="userSpaceOnUse">
<stop stop-color="#115511"/>
<stop offset="1" stop-color="#2C6C14"/>
</linearGradient>
<linearGradient id="paint6_linear_15_695" x1="79.404" y1="41.4417" x2="81.175" y2="46.5985" gradientUnits="userSpaceOnUse">
<stop stop-color="#174F09"/>
<stop offset="1" stop-color="#326708"/>
</linearGradient>
<linearGradient id="paint7_linear_15_695" x1="19.0658" y1="44.3961" x2="43.8649" y2="55.9393" gradientUnits="userSpaceOnUse">
<stop stop-color="#06581C"/>
<stop offset="1" stop-color="#367912"/>
</linearGradient>
<linearGradient id="paint8_linear_15_695" x1="30.9951" y1="47.203" x2="57.034" y2="53.8901" gradientUnits="userSpaceOnUse">
<stop stop-color="#002E0D"/>
<stop offset="1" stop-color="#001A02"/>
</linearGradient>
</defs>
</svg>
