<svg width="32" height="32" viewBox="0 0 32 32" fill="none" xmlns="http://www.w3.org/2000/svg">
<rect x="24.1279" y="8.448" width="0.768" height="1.344" fill="#D9D9D9"/>
<rect x="24.96" y="7.552" width="1.152" height="4.288" fill="#D9D9D9"/>
<path d="M6.33237 6.49665C6.31445 6.56705 6.26453 6.69889 6.17237 6.72129L1.30389 6.73665C1.26037 6.73665 1.23413 6.73921 1.20661 6.75905C1.19253 6.76929 1.17781 6.77697 1.17781 6.81793C1.15157 6.80641 1.11893 6.80449 1.07541 6.81281C0.885327 6.43073 0.709327 6.03585 0.554447 5.61857C0.554447 5.58849 0.543567 5.56353 0.512207 5.56737V4.47681L6.33301 6.49665H6.33237Z" fill="#012305"/>
<path d="M31.525 1.84193C31.4181 1.87585 31.331 1.95713 31.2466 2.04673L30.9509 2.35777L30.5272 2.81089L30.012 3.35681L29.4827 3.91617L28.9221 4.50817L28.4389 5.02465L28.044 5.44641L27.7496 5.76001C27.7285 5.78241 27.731 5.81953 27.7394 5.84129C27.7221 5.84577 27.6606 5.85921 27.7003 5.92641L27.6062 5.91105C27.5845 5.90785 27.5646 5.95073 27.5442 5.97313L27.2562 6.29441L26.949 6.62593L26.4235 7.21537L25.9774 7.68193L25.9294 7.74465C25.9211 7.75553 25.3662 7.76705 25.3547 7.73633C25.3483 7.71841 25.3605 7.68449 25.3829 7.66209L26.3762 6.68609L27.2254 5.83873L27.7406 5.32225L29.0718 4.02433L29.7989 3.32481L30.4651 2.68865L31.2523 1.93345L31.5243 1.69025V1.84001L31.525 1.84193Z" fill="#05481F"/>
<path d="M9.7793 1.024C9.77802 1.05472 9.80234 1.0624 9.83178 1.06368L11.3953 1.64736C11.4587 1.67104 11.5124 1.6896 11.5483 1.74016L11.5636 2.11456L11.5655 3.11744C11.0958 2.7616 10.8628 2.30208 10.3956 1.86176L10.1902 1.57824C10.0903 1.44064 9.93866 1.36192 9.8113 1.26464C9.73962 1.21024 9.69866 1.10976 9.69482 1.024H9.78058H9.7793Z" fill="#02521E"/>
<path d="M31.5263 4.89983C31.4808 4.89343 31.4495 4.93183 31.4047 4.96063L30.0466 5.82335C30.0351 5.74591 30.1676 5.74271 30.2162 5.63967C30.1906 5.59807 30.0952 5.54751 30.1266 5.45919L31.5263 4.69119V4.89983Z" fill="#09481F"/>
<path d="M1.17775 6.81791L4.39823 8.19199L11.0529 10.9766C11.0971 10.9952 11.1182 10.9946 11.1515 10.985L11.1739 11.0656C11.1854 11.1059 11.1413 11.136 11.1016 11.1494L7.24943 10.8563L6.69135 10.825L5.97455 10.7629L5.54767 10.7315L3.72239 10.5984C3.69039 10.5862 3.66863 10.5882 3.65199 10.624C3.15279 10.0685 2.72015 9.47007 2.28751 8.84799C1.82863 8.18815 1.42735 7.52127 1.07471 6.81343C1.11887 6.80511 1.15087 6.80703 1.17711 6.81855L1.17775 6.81791Z" fill="url(#paint0_linear_15_602)"/>
<path d="M11.1013 11.1494C11.1467 11.1526 11.2152 11.1834 11.2453 11.2403L10.2904 11.7958L9.59666 12.1978L9.08402 12.4698L8.7685 12.6765L7.54866 13.4214L7.16914 13.696C7.09362 13.6685 7.01746 13.6403 6.93234 13.6262C5.8533 12.7949 4.8037 11.9053 3.87634 10.8736L3.65234 10.624C3.66834 10.5888 3.69074 10.5862 3.72274 10.5984L5.54802 10.7315L5.9749 10.7629L6.6917 10.825L7.24978 10.8563L11.1019 11.1494H11.1013Z" fill="#001E03"/>
<path d="M24.5306 17.0624L24.297 16.8954C24.2772 17.001 24.3469 17.0835 24.4116 17.1674L25.0944 18.0538L25.977 19.1776L26.9274 18.864L27.0887 20.1344C27.017 20.1734 27.0253 20.2515 27.0247 20.3264L26.9997 22.2957C26.9997 22.3264 26.9773 22.3475 26.9408 22.3514L25.9559 19.207L25.0157 18.809L24.1863 20.1926L23.9655 20.0435C23.8042 19.9347 23.6512 19.783 23.4541 19.703C23.3274 19.6826 23.1885 19.8541 23.136 19.9706L20.9984 19.2179C20.9293 19.1936 20.9402 19.0893 20.9268 19.0451L21.0458 18.887L22.5536 16.3552C22.617 16.4672 22.5831 16.5971 22.5408 16.7174L22.5133 17.0003L22.4525 17.3338L22.4263 17.5776L22.3975 17.7997C22.3847 17.8976 22.3527 17.977 22.3418 18.0755L22.3117 18.3526L22.2861 18.457C22.2772 18.4934 22.3412 18.528 22.3904 18.5184C22.5204 18.4934 22.578 18.3693 22.6484 18.2554L23.6941 16.5664C23.7568 16.4653 23.842 16.3123 23.8477 16.1952L24.3924 16.8544C24.4455 16.9197 24.512 16.9741 24.53 17.0637L24.5306 17.0624ZM22.3258 18.8538C22.482 18.9901 22.69 19.1411 22.8948 19.2646L22.3879 18.7053C22.3591 18.665 22.3143 18.6746 22.3117 18.7302L22.2631 18.8179C22.2522 18.8378 22.3047 18.8595 22.3258 18.8531V18.8538Z" fill="#044A19"/>
<path d="M5.543 14.8666L6.35836 15.0131C6.45372 15.0304 6.55996 15.047 6.63292 15.0848L8.4486 18.1683L11.9372 23.9149C11.9308 23.9501 11.9059 23.9654 11.8835 23.9603C11.8636 23.9558 11.831 23.936 11.8156 23.9149L11.4444 23.4016L7.927 18.9626C7.2998 18.1709 6.68156 17.3997 5.9654 16.6842L4.57148 15.2909C4.33916 15.0586 4.10428 14.8608 3.85532 14.6618C3.83356 14.6867 3.81564 14.6886 3.815 14.6861L3.72412 14.6029C3.72732 14.5862 3.7542 14.5229 3.78364 14.5286L5.543 14.8672V14.8666Z" fill="url(#paint1_linear_15_602)"/>
<path d="M13.0197 25.5558L13.2014 25.7882L13.197 25.8426L13.1874 26.3322L13.149 28.087C13.1976 28.0755 13.2258 28.0474 13.2386 28.0326L13.2315 28.0845C13.229 28.0941 13.2424 28.1082 13.2622 28.1062L10.3573 30.432L9.58545 31.0355L11.0018 26.7642C11.0267 26.7725 11.0395 26.704 11.06 26.6874L11.4114 26.4006C11.4478 26.3706 11.5022 26.3302 11.5374 26.32C11.5874 26.3053 11.6347 26.2867 11.6898 26.2528L12.8277 25.4765C12.859 25.5027 12.8942 25.5021 12.9109 25.4982C12.923 25.4957 12.9339 25.4803 12.941 25.4547L13.0197 25.5552V25.5558Z" fill="url(#paint2_linear_15_602)"/>
<path d="M18.2737 23.2186L17.8782 23.7594L16.7383 25.2493L16.0241 25.8701C15.9678 25.9194 15.8519 25.9411 15.8654 26.0403C15.7975 26.0403 15.7419 26.039 15.6932 26.1152L13.2625 28.1062C13.242 28.1082 13.2292 28.0941 13.2318 28.0845L13.2388 28.0326L13.443 27.799L14.0599 27.0214L14.2046 26.8422L15.1211 25.657L15.1723 25.593L16.3729 24.0538L15.9723 21.9661C15.9223 21.9501 15.8859 22.0032 15.8622 22.0326L15.6081 22.3526L15.5057 22.3475L15.9185 21.9219C15.9582 21.9763 16.0094 21.9309 15.9876 21.8899L16.3831 22.1382L16.9623 22.4685L18.1982 23.1411C18.2385 23.1629 18.273 23.1712 18.2743 23.2198L18.2737 23.2186Z" fill="#085115"/>
<path d="M7.5567 23.6826L4.93654 23.9456L4.33942 23.9981L3.81014 24.0403C3.79606 23.9264 3.88054 23.9174 3.97014 23.8643L8.45206 21.2179C8.46102 21.2 8.4655 21.2096 8.47382 21.2096C8.49302 21.2096 8.50966 21.1853 8.50198 21.1667C8.56918 21.1917 8.53846 21.287 8.51414 21.3472L8.27286 21.9328L7.51638 23.6422C7.54326 23.6448 7.56502 23.6493 7.5567 23.6826Z" fill="#5B9518"/>
<path d="M25.9761 7.808L26.2788 7.9072C26.3876 7.94304 26.49 7.96352 26.5841 8.02752C26.5387 8.06656 26.5662 8.10176 26.5726 8.15296L26.8094 10.1626L27.1268 12.8941L26.0817 12.5158L25.9172 12.4634C25.9198 12.4589 25.9115 12.4461 25.8948 12.4358L25.8366 11.8336L25.7988 11.561L25.8321 11.5168C25.8321 11.5168 25.8369 11.472 25.8398 11.4432C25.911 10.7383 25.8645 10.3378 25.8763 9.62944C25.8879 8.93365 25.8999 7.84768 25.8999 7.84768C25.8455 7.85472 25.8238 7.82976 25.8295 7.79136C25.8724 7.78752 25.9358 7.79328 25.9761 7.80672V7.808Z" fill="url(#paint3_linear_15_602)"/>
<path d="M8.45188 21.2173L3.96996 23.8637C3.87972 23.9168 3.79524 23.9258 3.80996 24.0397C3.77412 24.0422 3.72996 24.0422 3.69092 23.9981L6.4666 20.6074C6.47428 20.6355 6.48004 20.6458 6.50884 20.6528L8.48068 21.1251C8.45508 21.1674 8.44484 21.1878 8.45188 21.2173Z" fill="#17651A"/>
<path d="M23.1834 12.384L23.9002 14.009C23.9232 14.0614 23.9987 14.0992 24.0371 14.1114C24.0576 14.1178 24.0653 14.1805 24.0538 14.1901C24.0525 14.201 24.0256 14.2246 24.0186 14.2336L23.9085 15.2096L23.8541 16.0461L23.8471 16.1939C23.8413 16.311 23.7562 16.4634 23.6935 16.5651C23.6672 16.5683 23.6474 16.5427 23.6775 16.5274C23.6781 16.4698 23.6634 16.4205 23.648 16.377C23.616 16.2874 23.5482 16.2074 23.4842 16.1254C23.2704 15.8534 23.0874 15.5738 22.8973 15.2851C22.7776 15.1027 22.656 14.9357 22.5767 14.7584L22.6023 13.8445L22.6496 12.775L22.7232 11.3984L23.1815 12.384H23.1834Z" fill="url(#paint4_linear_15_602)"/>
<path d="M11.9373 23.9149L12.3489 24.5587C12.3802 24.608 12.386 24.6438 12.3444 24.695L11.9604 24.2854L11.6269 23.9213L11.3172 23.6006L9.08421 20.9824L6.16901 17.5078L4.32261 15.2992L3.81445 14.6861C3.81445 14.6861 3.83301 14.6861 3.85477 14.6618C4.10373 14.8608 4.33861 15.0586 4.57093 15.2909L5.96485 16.6842C6.68101 17.4003 7.29925 18.1709 7.92645 18.9626L11.4439 23.4016L11.8151 23.9149C11.8305 23.936 11.8631 23.9558 11.8829 23.9603C11.9047 23.9654 11.9303 23.9494 11.9367 23.9149H11.9373Z" fill="#83B328"/>
<path d="M6.93305 13.6256C7.01817 13.6397 7.09433 13.6678 7.16985 13.6954L11.23 15.191C11.2723 15.1923 11.2927 15.2013 11.2947 15.2326L8.68153 14.7853L7.36761 14.5536C7.39769 14.5312 7.45657 14.5536 7.48537 14.4883L5.89753 14.1741C5.80281 14.1555 5.71705 14.1331 5.62873 14.1626C5.59417 14.1491 5.56857 14.121 5.54233 14.0966L4.71289 13.3312C4.75769 13.2627 4.81593 13.2755 4.88185 13.2864L6.93241 13.6256H6.93305Z" fill="#7EB124"/>
<path d="M23.9795 21.223C23.9827 21.1738 24.0121 21.1642 24.0537 21.1456L24.823 20.7949L24.9574 20.7104L25.3881 21.705L26.8179 25.3178L24.3193 21.7472L23.9795 21.2237V21.223Z" fill="url(#paint5_linear_15_602)"/>
<path d="M21.6372 19.5488L22.1377 19.7344L22.5204 19.8765L24.0788 20.4262C24.3054 20.5062 24.5204 20.5914 24.7463 20.6118C24.8199 20.6189 24.9236 20.6304 24.9582 20.7098L24.8238 20.7942L24.0545 21.145C24.0129 21.1642 23.9835 21.1738 23.9803 21.2224L23.6526 21.0989L21.3543 20.2746L20.77 20.0582C20.8315 20.0269 20.859 19.9725 20.8865 19.9142L21.0043 19.6666L21.3358 19.6026C21.4503 19.5802 21.5463 19.591 21.6385 19.5482L21.6372 19.5488Z" fill="#3C7209"/>
<path d="M26.0818 12.5165C26.0594 12.537 26.0306 12.5414 25.9871 12.5389L26.0223 12.6208L25.9167 12.5613L25.9071 12.8781L25.9103 13.6928L25.9071 14.2714L25.884 15.7357L25.8635 16.5843C25.7823 16.5734 25.7317 16.4742 25.7272 16.3872L25.685 16.3219C25.7106 16.3174 25.7208 16.2989 25.7055 16.2605L25.0975 14.7174L24.6616 13.7062C24.6847 13.68 24.6744 13.625 24.6821 13.5936L25.1051 13.2307L25.7823 12.5798L25.9173 12.4646L26.0818 12.5171V12.5165Z" fill="url(#paint6_linear_15_602)"/>
<path d="M7.55643 23.6826C7.56475 23.6486 7.54299 23.6448 7.51611 23.6422L8.27259 21.9328L8.51387 21.3472C8.53883 21.287 8.56891 21.1923 8.50171 21.1667C8.49019 21.1398 8.49403 21.1066 8.50811 21.0688L9.91419 22.745L7.55643 23.6826Z" fill="#387819"/>
<path d="M26.0223 12.6208C26.2707 12.8026 26.4985 13.0163 26.7391 13.2282C26.8083 13.2896 26.8819 13.3414 26.9638 13.3632C26.9145 13.625 26.8364 13.8714 26.7475 14.1421L25.9948 16.4461C25.9763 16.503 25.9116 16.5901 25.8643 16.5837L25.8847 15.735L25.9078 14.2707L25.911 13.6922L25.9078 12.8774L25.9174 12.5606L26.023 12.6202L26.0223 12.6208Z" fill="#679F14"/>
<path d="M30.127 5.4592C30.0956 5.54752 30.191 5.59808 30.2166 5.63968C30.1679 5.74272 30.0354 5.74592 30.047 5.82336L27.0518 7.75168L26.5846 8.02816C26.4905 7.96416 26.3881 7.94368 26.2793 7.90784L25.9766 7.80864C25.99 7.77472 26.0214 7.75872 26.0489 7.74336L27.0057 7.21984C27.0383 7.1808 27.0953 7.14304 27.0946 7.06176C27.117 7.07072 27.1305 7.06752 27.1593 7.05792C27.1548 7.0688 27.1522 7.0912 27.1593 7.09696C27.1682 7.10272 27.1804 7.10144 27.2066 7.08672L30.1263 5.4592H30.127Z" fill="#022E10"/>
<path d="M12.3444 24.695L12.9409 25.4547C12.9339 25.4803 12.923 25.4957 12.9108 25.4982C12.8942 25.5014 12.859 25.5021 12.8276 25.4765L11.6897 26.2528C11.6347 26.2867 11.5867 26.3053 11.5374 26.32C11.5963 26.1696 11.8337 26.0666 11.924 25.9206C12.0046 25.7907 11.8932 25.6461 11.8177 25.5558L11.5796 25.2691C11.5246 25.2032 11.492 25.1251 11.3902 25.1642L11.3652 24.5786L11.3179 23.6L11.6276 23.9206L11.9611 24.2848L12.3451 24.6944L12.3444 24.695Z" fill="#022708"/>
<path d="M11.5372 26.3206C11.502 26.3309 11.4476 26.3712 11.4111 26.4013L11.0598 26.688C11.0393 26.7046 11.0265 26.7731 11.0015 26.7648L9.9097 27.543C9.8905 27.4374 9.96922 27.399 10.0127 27.3357L11.319 25.4093C11.3785 25.3216 11.3932 25.2544 11.3894 25.1654C11.4911 25.1264 11.5238 25.2045 11.5788 25.2704L11.8169 25.5571C11.8924 25.648 12.0038 25.792 11.9231 25.9219C11.8329 26.0678 11.5955 26.1709 11.5366 26.3213L11.5372 26.3206Z" fill="#024618"/>
<path d="M4.71366 13.3312L5.5431 14.0966C5.54054 14.1229 5.53158 14.1357 5.50918 14.1306L3.49446 14.1779L3.0823 14.2214C3.05862 14.2592 3.0311 14.3027 2.98182 14.3091C2.92102 14.295 2.84422 14.3034 2.80518 14.2278L4.54086 13.2493L4.7143 13.3299L4.71366 13.3312Z" fill="#03501C"/>
<path d="M8.5084 21.0688C8.49368 21.1072 8.48984 21.1398 8.502 21.1667C8.51032 21.1853 8.49368 21.2102 8.47384 21.2096C8.46552 21.2096 8.4604 21.1994 8.45208 21.2179C8.44568 21.1891 8.45592 21.168 8.48088 21.1258L6.50904 20.6534C6.48024 20.6464 6.47448 20.6368 6.4668 20.608L6.93144 20.1069L7.33528 19.6877L8.5084 21.0688Z" fill="#02531E"/>
<path d="M25.6856 16.3219L24.0542 14.1901C24.0658 14.1805 24.0581 14.1178 24.0376 14.1114L24.6622 13.7062L25.0981 14.7174L25.7061 16.2605C25.7214 16.2989 25.7106 16.3174 25.6856 16.3219Z" fill="#011C03"/>
<path d="M5.62864 14.1632C5.62736 14.1901 5.64592 14.2042 5.65744 14.2234C5.6248 14.217 5.60944 14.2362 5.6088 14.2522L5.60688 14.3194C5.54864 14.5498 5.58256 14.7162 5.54288 14.8666L3.78352 14.528C3.75344 14.5222 3.7272 14.5856 3.724 14.6022C3.63568 14.521 3.61072 14.4531 3.48912 14.425L2.98096 14.3091C3.03024 14.3034 3.05776 14.2592 3.08144 14.2214L3.4936 14.1779L5.50832 14.1306C5.53072 14.1357 5.54032 14.1222 5.54224 14.0966C5.56848 14.121 5.59408 14.1491 5.62864 14.1626V14.1632Z" fill="#3F750A"/>
<path d="M26.9272 18.8634L25.9768 19.177L25.0942 18.0531C25.1947 17.9635 25.2862 17.8682 25.4238 17.8483L25.4386 17.7152L26.7525 18.6995C26.812 18.7443 26.9061 18.8026 26.9278 18.8627L26.9272 18.8634Z" fill="#679F1A"/>
<path d="M27.1896 23.1213L27.2344 22.8096L27.3707 22.2874C27.4987 22.3565 27.5941 22.4595 27.7099 22.5619L29.2696 23.9302L27.189 23.1219L27.1896 23.1213Z" fill="#2A6D1C"/>
<path d="M27.3708 22.2867L27.2345 22.809L27.1897 23.1206C27.1654 23.111 27.1321 23.049 27.1244 23.0214L26.9395 22.3501C26.9759 22.3462 26.9983 22.3251 26.9983 22.2944L27.0233 20.3251C27.0239 20.2502 27.0163 20.1715 27.0873 20.1331L27.3702 22.2867H27.3708Z" fill="#5C9523"/>
<path d="M20.9259 19.0432C20.9387 19.0874 20.9285 19.1917 20.9976 19.216L23.1352 19.9686L23.7951 20.2054C23.8277 20.217 23.8693 20.2182 23.8789 20.199L23.9167 20.121L23.9224 20.0608C23.9237 20.0486 23.948 20.0371 23.9647 20.0416L24.1855 20.1907L24.7467 20.6112C24.5208 20.5907 24.3058 20.5056 24.0792 20.4256L22.5208 19.8758L22.1381 19.7338L21.6376 19.5482L20.8223 19.2403L20.8306 18.953C20.8671 18.9619 20.9157 19.0074 20.9266 19.0432H20.9259Z" fill="#A4C77F"/>
<path d="M24.5308 17.0624L24.8668 17.3171L25.4389 17.7158L25.4242 17.849C25.2866 17.8688 25.1951 17.9642 25.0946 18.0538L24.4117 17.1674C24.3477 17.0842 24.278 17.001 24.2972 16.8954L24.5308 17.0624Z" fill="#528E19"/>
<path d="M27.1268 12.8947L26.963 13.3638C26.8817 13.3421 26.8081 13.2896 26.7383 13.2288C26.4977 13.0163 26.2698 12.8032 26.0215 12.6214L25.9863 12.5395C26.0305 12.5421 26.0593 12.5376 26.081 12.5171L27.1262 12.8954L27.1268 12.8947Z" fill="#164F0B"/>
<path d="M14.7725 6.39104C14.7559 6.42176 14.7616 6.49216 14.7879 6.53248L16.4973 9.14816L18.1671 11.6909L19.5892 13.7421C19.6032 13.7626 19.6116 13.7773 19.6122 13.7894C19.6135 13.8086 19.5892 13.8208 19.5655 13.8138L16.8692 11.687L15.8068 10.8403C15.8106 10.743 15.776 10.6336 15.7248 10.5574L15.506 9.97632L13.6218 5.1488L13.2404 4.2016C13.232 4.18048 13.2269 4.1536 13.2461 4.14336L14.729 6.41792C14.7488 6.39488 14.7648 6.39104 14.7719 6.3904L14.7725 6.39104Z" fill="#012507"/>
<path d="M13.2463 4.14464C13.2271 4.15488 13.2322 4.18176 13.2405 4.20288L13.6219 5.15008L15.5061 9.9776L15.725 10.5587C15.6949 10.5574 15.6757 10.5382 15.6578 10.5056L15.4735 10.1658L13.7544 7.0464L12.7189 5.2064L12.1103 4.11392L11.5963 3.20704C11.5765 3.17248 11.5656 3.14688 11.5656 3.11872L11.5637 2.11584L11.5483 1.74144L13.2463 4.14592V4.14464Z" fill="#81B425"/>
<path d="M10.2585 7.84576L10.3442 7.91296L10.6201 7.99872L11.6588 8.34816L12.0319 8.49664C12.4562 8.63552 12.8773 8.75328 13.2901 8.94656C13.3023 8.95232 13.3177 8.94144 13.3324 8.93184C13.3625 9.00096 13.422 9.02336 13.4796 9.06752L14.8121 11.1072L15.8917 12.6906C16.1644 13.0899 16.4325 13.4605 16.7807 13.8086L18.6098 15.6378L18.8658 15.865L19.1538 16.0986L18.7839 16.0973L17.8745 16.0653L15.8655 15.9872L15.6313 15.1693L14.7359 12.039L11.4725 9.78496L7.79061 7.3216C7.70037 7.26144 7.61781 7.27424 7.52885 7.31136L7.12629 6.89152C7.11925 6.87104 7.13461 6.82752 7.14549 6.79488L10.1388 7.8176L10.2591 7.84704L10.2585 7.84576Z" fill="#7CB123"/>
<path d="M7.14427 6.7936C7.13339 6.82624 7.11867 6.86976 7.12507 6.89024L7.52763 7.31008L8.96059 8.7808L11.15 10.985C11.1167 10.9946 11.0963 10.9952 11.0515 10.9766L4.39675 8.192L1.17627 6.81792C1.17627 6.77696 1.19099 6.76928 1.20507 6.75904C1.23259 6.7392 1.25883 6.73664 1.30235 6.73664L6.17083 6.72128C6.26299 6.69888 6.31227 6.56704 6.33083 6.49664L7.14363 6.79296L7.14427 6.7936Z" fill="#014619"/>
<path d="M11.5654 3.11745C11.5654 3.14625 11.5763 3.17121 11.5961 3.20577L12.11 4.11265L12.7187 5.20513L13.7542 7.04513C13.7388 7.04961 13.7196 7.06369 13.726 7.06817C13.7363 7.07393 13.7587 7.12193 13.7408 7.14113C13.6217 7.18977 13.4912 7.14113 13.3728 7.16033C12.9561 7.23009 12.679 7.03617 12.5958 7.23521L11.726 5.25761C11.7075 5.21601 11.6953 5.18273 11.6576 5.17697L11.6531 4.97025C11.6492 4.80129 11.639 4.62913 11.6268 4.44609L11.5564 3.34529L11.1648 3.77409C11.1372 3.80417 11.1123 3.84129 11.0713 3.84577L10.8262 3.30433C10.6982 3.14689 10.6176 2.98177 10.4934 2.79425L10.5446 3.43745L10.6745 4.99009L10.7027 5.63905L10.7238 6.50817C10.5484 6.53121 10.3705 6.53633 10.1913 6.52865L9.95003 2.70081L9.90779 1.86113C9.89755 1.65377 9.88539 1.45217 9.80859 1.26337C9.93595 1.36065 10.0876 1.43937 10.1875 1.57697L10.3929 1.86049C10.8601 2.30081 11.0931 2.76033 11.5628 3.11617L11.5654 3.11745Z" fill="#417407"/>
<path d="M11.0735 3.8464C11.0479 3.90528 11.0965 3.95264 11.1234 4.01024L11.5433 4.89792C11.5695 4.9536 11.5913 4.97728 11.6546 4.97088L11.6591 5.1776V8.34816L10.6204 7.99872L10.3445 7.91296L10.2588 7.84576L10.2633 7.74784C10.2869 7.74912 10.3164 7.77728 10.2863 7.83168L10.7573 7.99872L10.7503 6.62784L10.726 6.51008L10.7049 5.64096L10.6767 4.992L10.5468 3.43936L10.4956 2.79616C10.6197 2.98304 10.7004 3.1488 10.8284 3.30624L11.0735 3.84768V3.8464Z" fill="#01350F"/>
<path d="M10.2631 7.74785L10.1934 6.53057C10.3726 6.53825 10.5505 6.53313 10.7258 6.51009L10.7502 6.62785L10.7572 7.99873L10.2862 7.83169C10.3162 7.77793 10.2868 7.74913 10.2631 7.74785Z" fill="#205906"/>
<path d="M15.6301 15.168C15.5853 15.1962 15.552 15.1974 15.5014 15.1718L14.9555 14.8986L13.8317 14.5165C13.8291 14.4947 13.8413 14.4819 13.8528 14.4845C13.8624 14.487 13.881 14.5024 13.9085 14.4774L13.4067 14.0781L10.6362 12.0448L10.2899 11.7958L11.2448 11.2403C11.2141 11.1834 11.1456 11.1533 11.1008 11.1494C11.1405 11.1354 11.184 11.1059 11.1731 11.0656L11.1507 10.985L8.96128 8.7808L7.52832 7.31008C7.61728 7.27296 7.70048 7.26016 7.79008 7.32032L11.472 9.78368L14.7354 12.0378L15.6307 15.168H15.6301Z" fill="#3D7F0F"/>
<path d="M20.5755 14.8045L20.6946 16.8346L20.8302 18.953L20.8219 19.2403C20.6318 19.3594 20.4597 19.52 20.2786 19.7043C20.2478 19.735 20.1602 19.744 20.1819 19.8176C20.251 19.7914 20.267 19.8298 20.3029 19.8419C20.333 19.8515 20.3592 19.8566 20.3477 19.9066C20.2907 19.8861 20.2299 19.8739 20.1621 19.824L17.5534 21.9712L19.4325 23.4208C19.4466 23.4573 19.4766 23.4963 19.5285 23.5123C19.5067 23.545 19.5042 23.5622 19.5003 23.5827C19.453 23.5776 19.4197 23.5533 19.3806 23.5302L18.4917 22.9965L17.3435 22.3277C17.0043 22.1299 16.0744 21.7389 15.972 21.8278C15.9477 21.849 15.972 21.8694 15.9867 21.8893C16.0085 21.9302 15.9573 21.9757 15.9176 21.9213L15.5048 22.3469L15.0574 22.6592L13.9675 23.4477L12.7355 24.3584C12.5774 24.2758 12.3989 24.2131 12.2734 24.0346L15.3269 19.6275L16.1422 19.0509L16.8648 18.4365C16.877 18.4205 16.8718 18.3872 16.8706 18.3802C16.909 18.3859 16.9525 18.3533 16.9877 18.3206L17.3832 17.9526L18.9077 16.4589L19.2315 16.1498L19.78 15.5994C19.8043 15.5744 19.8389 15.5667 19.8651 15.5763C19.8792 15.5814 19.8869 15.6038 19.9125 15.6294C19.0882 16.8096 18.3106 18.0275 17.5438 19.2608C17.4997 19.3318 17.4478 19.3734 17.4459 19.4598C17.0965 19.6826 16.8718 20.0877 16.6357 20.4486L15.8402 21.6621L17.6354 20.809L18.3835 20.4429L19.4274 19.9123L19.8606 17.9206L20.3464 15.6506L20.4981 15.0451L20.4763 14.9709L20.5147 14.9126L20.5294 14.8243C20.532 14.8077 20.5435 14.7827 20.5742 14.8051L20.5755 14.8045Z" fill="#014517"/>
<path d="M19.5 23.5827C19.5979 23.6864 19.7765 23.7965 19.8955 23.7395L20.7173 24.311L20.9278 24.4371C20.9694 24.4621 20.9989 24.5018 20.9893 24.5382C20.9835 24.56 20.9208 24.6131 20.8856 24.5933L20.4197 24.3309L19.2325 23.7043C19.2113 23.7242 19.2049 23.7043 19.2043 23.6947C19.2037 23.6851 19.1998 23.6627 19.1973 23.6557C19.283 23.6691 19.3381 23.5949 19.3797 23.5296C19.4187 23.5533 19.452 23.5776 19.4993 23.5821L19.5 23.5827Z" fill="#376E0C"/>
<path d="M13.8323 14.5158L14.9562 14.8979L15.5021 15.1712C15.5526 15.1968 15.5859 15.1955 15.6307 15.1674L15.865 15.9853L15.6486 15.9661L11.7843 15.3101L11.2947 15.2326C11.2928 15.2006 11.273 15.1923 11.2301 15.191L7.16992 13.6954L7.54944 13.4208L8.76928 12.6758L9.0848 12.4691C9.08288 12.4909 9.08352 12.5261 9.09888 12.5331L9.15008 12.5562L10.0218 12.9357L12.6637 14.0384L13.8323 14.5158Z" fill="#004F1D"/>
<path d="M10.2906 11.7958L10.6368 12.0448L13.4074 14.0781L13.9092 14.4774C13.8816 14.5024 13.8631 14.487 13.8535 14.4845C13.842 14.4813 13.8304 14.4947 13.8324 14.5165L12.6637 14.039L10.0218 12.9363L9.15012 12.5568L9.09892 12.5338C9.08292 12.5267 9.08293 12.4915 9.08485 12.4698L9.59749 12.1978L10.2912 11.7958H10.2906Z" fill="#539212"/>
<path d="M22.6597 16.1562L22.5528 16.3539L21.045 18.8858L20.9259 19.0438C20.9157 19.008 20.8664 18.9626 20.8299 18.9536L20.6942 16.8352L20.5752 14.8051C20.6424 14.7123 20.7467 14.7693 20.8376 14.8352L22.6597 16.1562Z" fill="#8ABA2B"/>
<path d="M23.6486 16.3776C23.6639 16.4211 23.6786 16.4698 23.678 16.528C23.6479 16.5434 23.6678 16.569 23.694 16.5658L22.6482 18.2547C22.5778 18.3686 22.5202 18.4928 22.3903 18.5178C22.3417 18.5274 22.277 18.4928 22.286 18.4563L22.3116 18.352L22.3417 18.0749C22.3526 17.977 22.3846 17.897 22.3974 17.799L22.4262 17.577L22.4524 17.3331L22.5132 16.9997L22.5407 16.7168C22.583 16.5971 22.6162 16.4666 22.5535 16.3546L22.6604 16.1568C22.7142 16.1958 22.8082 16.2195 22.885 16.2374L23.5295 16.391C23.5801 16.4032 23.623 16.4109 23.6498 16.3782L23.6486 16.3776Z" fill="#326C0D"/>
<path d="M23.9642 20.0422C23.9476 20.0378 23.9232 20.0486 23.922 20.0614L23.9162 20.1216L23.8784 20.1997C23.8688 20.2189 23.8279 20.2176 23.7946 20.2061L23.1348 19.9693C23.1866 19.8528 23.3261 19.6813 23.4528 19.7018C23.65 19.7824 23.8029 19.9334 23.9642 20.0422Z" fill="#468613"/>
<path d="M22.3258 18.8538C22.3265 18.7987 22.3572 18.7533 22.3873 18.7053L22.8942 19.2646C22.69 19.1418 22.482 18.9907 22.3252 18.8538H22.3258Z" fill="#032707"/>
<path d="M22.3878 18.7053C22.3578 18.7533 22.327 18.7987 22.3264 18.8538C22.3046 18.8595 22.2528 18.8378 22.2637 18.8186L22.3123 18.7309C22.3143 18.6752 22.3597 18.6656 22.3885 18.7059L22.3878 18.7053Z" fill="#D8DBCC"/>
<path d="M5.65738 14.2234C5.8449 14.2931 6.04714 14.3334 6.25834 14.3578C6.50602 14.3859 6.73578 14.4525 6.96938 14.4902L6.96746 14.5434C6.96746 14.5754 7.01354 14.5562 7.02506 14.5587L7.59082 14.7846L9.75274 15.6115L13.3041 16.9754L16.3307 18.2016C16.3236 18.1997 15.7867 18.1466 15.5038 18.119L13.1742 17.8918C12.8561 17.8611 12.563 17.849 12.2519 17.8477C12.2289 17.9002 12.2315 17.9437 12.2353 17.9859L9.96522 16.7994L6.63338 15.0848C6.56042 15.047 6.45418 15.0304 6.35882 15.0131L5.54346 14.8666C5.58378 14.7155 5.54922 14.5498 5.60746 14.3194L5.60938 14.2522C5.60938 14.2362 5.62538 14.217 5.65802 14.2234H5.65738Z" fill="url(#paint7_linear_15_602)"/>
<path d="M13.797 24.8678L15.1404 25.5347C15.166 25.5475 15.1762 25.5533 15.1711 25.593L15.1199 25.657L14.5029 25.7133C14.0601 25.7619 13.63 25.7952 13.2005 25.7882L13.0188 25.5558L13.0706 25.5571L12.9682 25.2442C12.9413 25.1616 13.0149 25.1008 13.0399 25.0291L13.157 24.6976L13.23 24.6637C13.2383 24.6598 13.2306 24.6298 13.23 24.617L13.7957 24.8678H13.797Z" fill="#A7C984"/>
<path d="M14.2043 26.8422L14.0596 27.0214L13.4427 27.799L13.2385 28.0326C13.2264 28.0467 13.1976 28.0755 13.1489 28.087L13.1873 26.3322L13.1969 25.8426C13.2571 25.8349 13.2936 25.8605 13.3371 25.9098L14.0219 26.6758C14.0769 26.7373 14.1198 26.8147 14.2043 26.8422Z" fill="#669E11"/>
<path d="M15.1206 25.657L14.2041 26.8422C14.1197 26.8147 14.0768 26.7373 14.0217 26.6758L13.3369 25.9098C13.2934 25.8611 13.2569 25.8355 13.1968 25.8426L13.2013 25.7882C13.6307 25.7952 14.0608 25.7619 14.5037 25.7133L15.1206 25.657Z" fill="#7DB01F"/>
<path d="M15.1712 25.593C15.1763 25.5533 15.1661 25.5482 15.1405 25.5347C15.175 25.3504 15.1769 25.1565 15.1673 24.9517L15.1085 23.7094L15.0649 23.1878L15.4349 22.6419L15.6077 22.3526L15.8617 22.0326C15.8854 22.0032 15.9219 21.9501 15.9718 21.9661L16.3725 24.0538L15.1718 25.593H15.1712Z" fill="#8DBB2D"/>
<path d="M15.6069 22.3526L15.4341 22.6419L15.0642 23.1878L14.8555 23.4592L13.8578 24.8819C13.8283 24.8518 13.8053 24.8563 13.7963 24.8672L13.2306 24.6163L12.7358 24.3584L13.9678 23.4477L15.0578 22.6592L15.5051 22.3469L15.6075 22.352L15.6069 22.3526Z" fill="#4F8A09"/>
<path d="M19.3802 23.5302C19.338 23.5949 19.283 23.6698 19.1978 23.6563L18.3454 23.2064C18.3082 23.1866 18.2884 23.1981 18.2737 23.2186C18.2724 23.1699 18.2378 23.1622 18.1975 23.1398L16.9617 22.4672L16.3825 22.137L15.987 21.8886C15.9722 21.8688 15.9479 21.8483 15.9722 21.8272C16.0746 21.7382 17.0039 22.1293 17.3438 22.327L18.4919 22.9958L19.3809 23.5296L19.3802 23.5302Z" fill="#3E740C"/>
<path d="M25.7996 11.5616L25.8374 11.8342L25.8956 12.4365C25.9123 12.4467 25.9206 12.4602 25.918 12.464L25.783 12.5792L25.1059 13.2301L24.6828 13.593C24.67 13.5942 24.6534 13.5917 24.6521 13.584L24.231 11.5642L24.2035 11.504L23.9961 10.4045L25.0284 10.5619L25.5532 8.65216C25.7337 8.82112 25.8041 9.0784 25.6934 9.31008L25.4662 9.78432L25.8009 11.5603L25.7996 11.5616Z" fill="#76AC1B"/>
<path d="M22.7597 8.832L22.7648 9.34272C22.7367 9.45216 22.7424 9.55648 22.7399 9.6576C22.7104 9.6544 22.7059 9.6608 22.6823 9.69024L20.7296 12.1818C20.6579 12.3226 20.5658 12.4301 20.5677 12.6144L22.697 11.3402C22.6848 11.3702 22.6989 11.3952 22.7245 11.3978L22.6509 12.7744L22.6035 13.8438L22.5779 14.7578L21.6723 14.7226L20.88 14.6989L20.5831 14.681C20.496 14.6758 20.4506 14.736 20.3821 14.7725C20.3661 14.6682 20.5101 14.6733 20.5543 14.6272C20.5639 14.6176 20.5959 14.6214 20.6003 14.6528L21.2103 14.6682L22.2439 14.6963C22.3456 14.6989 22.4423 14.7322 22.5376 14.7008C22.5114 14.5773 22.5511 14.4947 22.553 14.3987L22.5728 13.4938L20.7482 14.4742C20.6842 14.5088 20.6208 14.5408 20.5632 14.5338C20.5024 14.5261 20.496 14.5747 20.457 14.5638C20.4448 14.56 20.4275 14.5427 20.4448 14.519C20.4493 14.5306 20.496 14.5222 20.496 14.4954L20.4871 12.0544L20.4807 10.7462C20.48 10.5882 20.505 10.4301 20.4327 10.2758L22.7603 8.83264L22.7597 8.832Z" fill="#7DB121"/>
<path d="M22.8216 8.84736L23.5576 9.06816C23.683 9.5296 23.8225 9.97696 23.9953 10.4051L24.2027 11.5046C24.0971 11.5578 23.9889 11.5226 23.859 11.4989C23.8219 11.4918 23.7771 11.5187 23.7381 11.4477L23.6101 11.6128L23.2785 12.2579C23.2574 12.2989 23.2645 12.3757 23.1838 12.3827L22.7256 11.3971C22.7 11.3952 22.6853 11.3702 22.6981 11.3395L22.7409 9.65632C22.7435 9.5552 22.7377 9.45088 22.7659 9.34144L22.7608 8.83072C22.7819 8.84992 22.8094 8.84224 22.8229 8.84608L22.8216 8.84736Z" fill="#185609"/>
<path d="M24.2021 11.5053L24.2297 11.5654L24.6508 13.5853C24.6527 13.593 24.6687 13.5949 24.6815 13.5942C24.6738 13.6256 24.6841 13.6806 24.661 13.7069L24.0364 14.112C23.998 14.0998 23.9225 14.0621 23.8994 14.0096L23.1826 12.3846C23.2639 12.3776 23.2562 12.3008 23.2773 12.2598L23.6089 11.6147L23.7369 11.4496C23.7759 11.52 23.8207 11.4938 23.8578 11.5008C23.9871 11.5245 24.0953 11.5597 24.2015 11.5066L24.2021 11.5053Z" fill="#3E7108"/>
<path d="M22.5778 14.7584C22.6571 14.9357 22.7781 15.1034 22.8984 15.2851C23.0885 15.5738 23.2715 15.8534 23.4853 16.1254C23.5493 16.2074 23.6171 16.2874 23.6491 16.377C23.6222 16.4096 23.5794 16.4019 23.5288 16.3898L22.8843 16.2362C22.8082 16.2182 22.7141 16.1946 22.6597 16.1555L20.8376 14.8346C20.7467 14.7686 20.6424 14.7117 20.5752 14.8045C20.5445 14.7821 20.5336 14.807 20.5304 14.8237L20.5157 14.912L20.4773 14.9702L20.499 15.0445L20.3474 15.6499C20.2059 15.6371 20.0619 15.6384 19.9243 15.593L20.0888 15.328L20.4779 14.7846C20.492 14.7654 20.5733 14.7738 20.5784 14.752C20.5829 14.7328 20.5848 14.7066 20.5829 14.6816L20.8798 14.6995L21.6722 14.7232L22.5778 14.7584Z" fill="#024D18"/>
<path d="M7.36744 14.5542L8.68136 14.7859L11.2945 15.2333L11.7841 15.3107L15.6484 15.9667L15.8647 15.9859L17.8737 16.064L18.7831 16.096L19.153 16.0973C19.1774 16.1171 19.1921 16.1472 19.2324 16.1498L18.9086 16.4589L17.3841 17.9526L16.9886 18.3206C16.9534 18.3533 16.9098 18.3866 16.8714 18.3802L16.33 18.2016L13.3034 16.9754L9.75208 15.6115L7.59016 14.7846L7.0244 14.5587C7.01352 14.5562 6.96616 14.5747 6.9668 14.5434L6.96872 14.4902L7.3668 14.5542H7.36744Z" fill="url(#paint8_linear_15_602)"/>
<path d="M7.36785 14.5542L6.96977 14.4902C6.73617 14.4525 6.50577 14.3866 6.25873 14.3578C6.04753 14.3334 5.84529 14.2931 5.65777 14.2234C5.64625 14.2042 5.62769 14.1901 5.62897 14.1632C5.71665 14.1331 5.80241 14.1555 5.89777 14.1747L7.48561 14.489C7.45617 14.5542 7.39729 14.5318 7.36785 14.5542Z" fill="#B1D289"/>
<path d="M21.637 19.5488C21.5448 19.5923 21.4488 19.5814 21.3343 19.6032L21.0027 19.6672L20.885 19.9149C20.8575 19.9731 20.8299 20.0269 20.7685 20.0589L20.3467 19.9066C20.3583 19.8566 20.332 19.8522 20.3019 19.8419C20.2661 19.8298 20.2501 19.7914 20.181 19.8176C20.1599 19.744 20.2475 19.7357 20.2776 19.7043C20.4587 19.5206 20.6315 19.3594 20.821 19.2403L21.6363 19.5482L21.637 19.5488Z" fill="#24610A"/>
<path d="M25.0874 7.8528C25.2992 7.9136 25.5322 7.92384 25.7152 8.03968C25.6423 8.12352 25.561 8.17664 25.4637 8.2272L24.9427 8.49728C24.8743 8.52672 24.7603 8.5856 24.7379 8.65344C24.6445 8.59008 24.5159 8.60224 24.4192 8.67136L24.2266 8.80896C24.1101 8.81664 24.0071 8.86848 23.8919 8.92288L23.5578 9.06944L22.8218 8.84864C22.8723 8.84352 22.9069 8.81024 22.9536 8.78016L23.8279 8.21824C23.8637 8.23424 23.856 8.1856 23.8323 8.19072C23.8579 8.19072 23.9021 8.1664 23.9303 8.14912L24.3213 7.90464C24.4839 7.80288 24.8653 7.80096 25.0874 7.85408V7.8528Z" fill="#4B7D0A"/>
<path d="M15.8067 10.841L16.8691 11.6877L19.5654 13.8144L20.4441 14.519C20.4268 14.5427 20.4441 14.56 20.4563 14.5638C20.4953 14.5747 20.5017 14.5261 20.5625 14.5338C20.5574 14.5645 20.5491 14.5958 20.5536 14.6278C20.5094 14.6739 20.3654 14.6688 20.3814 14.7731L19.4732 15.2627C19.1923 15.4144 18.9145 15.536 18.6092 15.6365L16.7801 13.8074C16.432 13.4598 16.1638 13.0886 15.8912 12.6893L14.8115 11.1059L13.479 9.06624L15.8067 10.8403V10.841Z" fill="#9BC34B"/>
<path d="M20.4326 10.2752C20.5049 10.4288 20.4799 10.5875 20.4806 10.7456L20.487 12.0538L20.4959 14.4947C20.4959 14.5216 20.4492 14.5299 20.4447 14.5184L19.566 13.8138C19.5897 13.8214 19.614 13.8086 19.6127 13.7894C19.6121 13.7773 19.6038 13.7626 19.5897 13.7421L18.1676 11.6909C18.1676 11.6781 18.1599 11.6461 18.1689 11.6397L18.2348 11.5962L19.0623 11.0944L19.2345 11.0035L20.4326 10.2752Z" fill="#206411"/>
<path d="M15.7253 10.5587C15.7765 10.6349 15.8105 10.7437 15.8073 10.8416L13.4796 9.06752C13.422 9.024 13.3625 9.00096 13.3324 8.93184L12.5977 7.23584C12.6809 7.0368 12.9573 7.23072 13.3746 7.16096C13.493 7.14112 13.6229 7.1904 13.7426 7.14176C13.7605 7.12256 13.7381 7.0752 13.7279 7.0688C13.7209 7.06496 13.7401 7.05024 13.7561 7.04576L15.4751 10.1651L15.6594 10.505C15.6767 10.5376 15.6959 10.5568 15.7266 10.5581L15.7253 10.5587Z" fill="#215403"/>
<path d="M20.5822 14.6816C20.5841 14.7066 20.5822 14.7328 20.5777 14.752C20.5726 14.7744 20.4913 14.7654 20.4772 14.7846L20.0881 15.328L19.9236 15.593C19.9159 15.6006 19.8935 15.6115 19.9127 15.6288C19.8878 15.6038 19.8794 15.5808 19.8654 15.5757C19.8391 15.5667 19.8052 15.5744 19.7802 15.5987L19.2318 16.1491C19.1914 16.1472 19.1774 16.1165 19.1524 16.0966L18.8644 15.863L18.6084 15.6358C18.9137 15.5354 19.1914 15.4131 19.4724 15.2621L20.3806 14.7725C20.449 14.7354 20.4945 14.6752 20.5815 14.681L20.5822 14.6816Z" fill="#011B03"/>
<path d="M11.6543 4.97088C11.5909 4.97728 11.5698 4.9536 11.5429 4.89792L11.1231 4.01024C11.0962 3.95328 11.0475 3.90528 11.0731 3.8464C11.1141 3.84192 11.1391 3.80544 11.1666 3.77472L11.5583 3.34592L11.6287 4.44672C11.6402 4.62976 11.6511 4.80192 11.6549 4.97088H11.6543Z" fill="#064710"/>
<path d="M20.3474 15.6506L19.8617 17.9206C19.8335 17.9206 19.8079 17.9334 19.7721 17.9571L18.2911 18.9222L17.4463 19.4605C17.4482 19.3741 17.5007 19.3325 17.5442 19.2614C18.3109 18.0275 19.0879 16.8102 19.9128 15.6301C19.8936 15.6128 19.9161 15.6019 19.9237 15.5942C20.0613 15.6397 20.2053 15.6384 20.3468 15.6512L20.3474 15.6506Z" fill="#509110"/>
<path d="M16.3298 18.2022L16.8713 18.3808C16.8725 18.3878 16.8777 18.4211 16.8655 18.4371L16.1429 19.0515L14.1794 18.7078C13.9061 18.6618 13.357 18.5376 13.3353 18.5043C13.3257 18.4896 13.2885 18.5005 13.2853 18.5395L12.2345 17.9866C12.2306 17.9437 12.2281 17.9008 12.2511 17.8483C12.5628 17.8496 12.8559 17.8618 13.1733 17.8925L15.5029 18.1197C15.7858 18.1472 16.3228 18.2003 16.3298 18.2022Z" fill="#5A9610"/>
<path d="M19.8618 17.9206L19.4285 19.9123L18.3847 20.4429L17.6365 20.809C17.5834 20.8269 17.5245 20.777 17.5917 20.736L17.5546 20.6662C17.5373 20.6336 17.5764 20.5971 17.5943 20.5606L17.9296 19.865L18.2208 19.0963C18.2432 19.0374 18.322 18.9926 18.2919 18.9222L19.7728 17.9571C19.808 17.9341 19.8343 17.9206 19.8624 17.9206H19.8618Z" fill="#E1EECC"/>
<path d="M17.636 20.809L15.8408 21.6621L16.6363 20.4486C16.8725 20.0883 17.0971 19.6826 17.4466 19.4598L18.2914 18.9216C18.3215 18.992 18.2427 19.0368 18.2203 19.0957L17.9291 19.8643L17.5938 20.56C17.5765 20.5965 17.5368 20.633 17.5541 20.6656L17.5912 20.7354C17.524 20.7763 17.5829 20.8262 17.636 20.8083V20.809Z" fill="#CDE2A9"/>
<path d="M16.1432 19.0515L15.3279 19.6282C15.3247 19.607 15.3151 19.5917 15.3042 19.591C15.292 19.5904 15.2716 19.5699 15.2556 19.5616L13.2856 18.5389C13.2888 18.4998 13.326 18.489 13.3356 18.5037C13.358 18.537 13.9064 18.6611 14.1797 18.7072L16.1432 19.0509V19.0515Z" fill="#317513"/>
<path d="M12.2398 18.5491C12.2853 18.599 12.3416 18.6426 12.3243 18.711L10.2769 20.0006C10.2373 20.0256 10.2174 20.0557 10.1739 20.0467L9.00781 18.112L9.89037 17.3331L12.2398 18.5491Z" fill="#013E13"/>
<path d="M11.4727 21.9962C11.4394 21.9725 11.4407 21.9597 11.4522 21.9226L12.4333 18.7443C12.4455 18.7059 12.4115 18.7091 12.4 18.7066C12.3795 18.7027 12.3488 18.6982 12.3245 18.7104C12.3418 18.6426 12.2855 18.5984 12.24 18.5485L14.6253 19.8093L11.4727 21.9955V21.9962Z" fill="#0B5C1F"/>
<path d="M11.4725 21.9962C11.4399 22.0704 11.3055 21.9539 11.2325 21.831L10.1733 20.0467C10.2169 20.0563 10.2373 20.0256 10.2764 20.0006L12.3237 18.711C12.3481 18.6982 12.3781 18.7027 12.3993 18.7072C12.4114 18.7098 12.4447 18.7059 12.4325 18.745L11.4514 21.9232C11.4399 21.9603 11.4393 21.9731 11.4719 21.9968L11.4725 21.9962Z" fill="#6EA41B"/>
<path d="M15.1402 25.5347L13.7969 24.8678C13.8052 24.857 13.8282 24.8525 13.8583 24.8826L14.8561 23.4598L15.0647 23.1885L15.1082 23.7101L15.1671 24.9523C15.1767 25.1571 15.1748 25.351 15.1402 25.5354V25.5347Z" fill="#77AB1A"/>
<path d="M25.552 8.65345L25.0272 10.5632L23.9949 10.4058C23.8221 9.97761 23.6826 9.53025 23.5571 9.06881L23.8912 8.92225C24.0064 8.86785 24.1101 8.81601 24.2259 8.80833L24.5882 9.80929C24.7629 9.42273 24.752 9.03681 24.7366 8.65281C24.759 8.58497 24.8736 8.52609 24.9414 8.49665L25.4624 8.22657C25.5597 8.17601 25.641 8.12289 25.7139 8.03905C25.7984 8.08321 25.7434 8.16513 25.7178 8.22977L25.5507 8.65345H25.552Z" fill="#011902"/>
<path d="M22.7401 9.65824L22.6972 11.3414L20.5679 12.6157C20.566 12.4314 20.6581 12.3238 20.7298 12.183L22.6825 9.69152C22.7055 9.66144 22.7106 9.65568 22.7401 9.65888V9.65824Z" fill="#E8F2DD"/>
<path d="M20.5543 14.6278C20.5504 14.5958 20.5581 14.5645 20.5632 14.5338C20.6208 14.5414 20.6842 14.5088 20.7482 14.4742L22.5728 13.4938L22.553 14.3987C22.5511 14.4947 22.5114 14.5779 22.5376 14.7008C22.4423 14.7322 22.3456 14.6989 22.2439 14.6963L21.2103 14.6682L20.6003 14.6528C20.5952 14.6214 20.5639 14.6176 20.5543 14.6272V14.6278Z" fill="#96C043"/>
<defs>
<linearGradient id="paint0_linear_15_602" x1="1.59153" y1="8.29332" x2="9.20719" y2="11.5227" gradientUnits="userSpaceOnUse">
<stop stop-color="#28771F"/>
<stop offset="1" stop-color="#5C9B15"/>
</linearGradient>
<linearGradient id="paint1_linear_15_602" x1="5.24938" y1="14.7428" x2="8.51546" y2="19.6148" gradientUnits="userSpaceOnUse">
<stop stop-color="#012005"/>
<stop offset="1" stop-color="#014518"/>
</linearGradient>
<linearGradient id="paint2_linear_15_602" x1="12.7855" y1="25.9762" x2="11.37" y2="29.2311" gradientUnits="userSpaceOnUse">
<stop stop-color="#1A4E06"/>
<stop offset="1" stop-color="#2F690C"/>
</linearGradient>
<linearGradient id="paint3_linear_15_602" x1="26.2953" y1="8.2049" x2="26.4382" y2="12.3234" gradientUnits="userSpaceOnUse">
<stop offset="0.22" stop-color="#76AA19"/>
<stop offset="1" stop-color="#BCD48C"/>
</linearGradient>
<linearGradient id="paint4_linear_15_602" x1="23.2286" y1="12.6348" x2="23.3657" y2="15.6097" gradientUnits="userSpaceOnUse">
<stop stop-color="#012205"/>
<stop offset="1" stop-color="#296A0F"/>
</linearGradient>
<linearGradient id="paint5_linear_15_602" x1="24.5683" y1="21.145" x2="25.2033" y2="22.5413" gradientUnits="userSpaceOnUse">
<stop stop-color="#115511"/>
<stop offset="1" stop-color="#2C6C14"/>
</linearGradient>
<linearGradient id="paint6_linear_15_602" x1="25.4092" y1="13.2613" x2="25.9759" y2="14.9115" gradientUnits="userSpaceOnUse">
<stop stop-color="#174F09"/>
<stop offset="1" stop-color="#326708"/>
</linearGradient>
<linearGradient id="paint7_linear_15_602" x1="6.10076" y1="14.2068" x2="14.0365" y2="17.9006" gradientUnits="userSpaceOnUse">
<stop stop-color="#06581C"/>
<stop offset="1" stop-color="#367912"/>
</linearGradient>
<linearGradient id="paint8_linear_15_602" x1="9.9182" y1="15.1049" x2="18.2507" y2="17.2448" gradientUnits="userSpaceOnUse">
<stop stop-color="#002E0D"/>
<stop offset="1" stop-color="#001A02"/>
</linearGradient>
</defs>
</svg>
